<svg xmlns="http://www.w3.org/2000/svg" width="24" height="24" viewBox="0 0 24 24">
    <g fill="none" fill-rule="evenodd">
        <g fill="#FFF" fill-rule="nonzero">
            <g>
                <path d="M57.429 0H38.57C37.151 0 36 1.152 36 2.571V21.43C36 22.849 37.152 24 38.571 24H57.43C58.849 24 60 22.848 60 21.429V2.57C60 1.151 58.848 0 57.429 0zm-2.62 8.507c.01.15.01.306.01.456 0 4.644-3.535 9.996-9.996 9.996-1.993 0-3.84-.579-5.394-1.575.283.032.557.043.846.043 1.645 0 3.155-.557 4.36-1.5-1.542-.032-2.839-1.045-3.283-2.438.54.08 1.028.08 1.586-.064-1.608-.327-2.813-1.741-2.813-3.45v-.043c.466.263 1.013.423 1.586.445-.98-.651-1.566-1.75-1.565-2.925 0-.654.172-1.254.477-1.773 1.73 2.132 4.329 3.525 7.243 3.675-.498-2.384 1.286-4.318 3.429-4.318 1.012 0 1.923.423 2.566 1.109.793-.15 1.553-.445 2.228-.847-.262.814-.814 1.5-1.543 1.934.708-.075 1.393-.273 2.025-.546-.476.702-1.076 1.323-1.762 1.821z" transform="translate(-1172.000000, -268.000000) translate(1136.000000, 268.000000)"/>
            </g>
        </g>
    </g>
</svg>
