<svg xmlns="http://www.w3.org/2000/svg" width="24" height="24" viewBox="0 0 24 24">
    <g fill="none" fill-rule="evenodd">
        <g fill="#FFF" fill-rule="nonzero">
            <g>
                <path d="M21.429 0H2.57C1.151 0 0 1.151 0 2.571V21.43C0 22.849 1.151 24 2.571 24h7.353v-8.16H6.55V12h3.375V9.073c0-3.33 1.982-5.169 5.018-5.169 1.454 0 2.974.26 2.974.26V7.43h-1.675c-1.65 0-2.165 1.025-2.165 2.075V12h3.685l-.59 3.84h-3.095V24h7.353C22.849 24 24 22.849 24 21.429V2.57C24 1.151 22.849 0 21.429 0z" transform="translate(-1136.000000, -268.000000) translate(1136.000000, 268.000000)"/>
            </g>
        </g>
    </g>
</svg>
