<svg xmlns="http://www.w3.org/2000/svg" width="24" height="24" viewBox="0 0 24 24">
    <g fill="none" fill-rule="evenodd">
        <g fill="#FFF" fill-rule="nonzero">
            <g>
                <path d="M166.286 0h-20.577C144.766 0 144 .777 144 1.73v20.54c0 .953.766 1.73 1.709 1.73h20.577c.943 0 1.714-.777 1.714-1.73V1.73c0-.953-.771-1.73-1.714-1.73zm-15.032 20.571h-3.558V9.118h3.563V20.57h-.005zm-1.779-13.017c-1.141 0-2.063-.927-2.063-2.063 0-1.136.922-2.062 2.063-2.062 1.136 0 2.063.926 2.063 2.062 0 1.141-.922 2.063-2.063 2.063zm15.113 13.017h-3.558V15c0-1.329-.026-3.037-1.848-3.037-1.853 0-2.137 1.446-2.137 2.94v5.668h-3.557V9.118h3.412v1.564h.048c.477-.9 1.64-1.848 3.37-1.848 3.6 0 4.27 2.373 4.27 5.459v6.278z" transform="translate(-1280.000000, -268.000000) translate(1136.000000, 268.000000)"/>
            </g>
        </g>
    </g>
</svg>
