<svg xmlns="http://www.w3.org/2000/svg" width="24" height="24" viewBox="0 0 24 24">
    <g fill="none" fill-rule="evenodd">
        <g fill="#FFF" fill-rule="nonzero">
            <g>
                <path d="M84 9.143c-1.578 0-2.857 1.28-2.856 2.858 0 1.578 1.28 2.857 2.857 2.856 1.578 0 2.858-1.279 2.858-2.857-.002-1.578-1.28-2.857-2.859-2.857zm6.68-2.197c-.293-.745-.883-1.335-1.628-1.629-1.125-.444-3.804-.345-5.052-.345-1.248 0-3.924-.103-5.052.345-.746.294-1.335.884-1.63 1.63-.443 1.124-.344 3.805-.344 5.052 0 1.248-.099 3.926.347 5.054.294.746.884 1.335 1.629 1.63 1.125.444 3.803.344 5.052.344 1.249 0 3.924.103 5.052-.345.745-.294 1.335-.883 1.629-1.629.447-1.125.344-3.806.344-5.053 0-1.247.103-3.925-.344-5.053h-.002zM84 16.393c-2.426 0-4.393-1.967-4.393-4.393 0-2.426 1.967-4.393 4.393-4.393 2.426 0 4.393 1.967 4.393 4.393.001 1.165-.461 2.284-1.285 3.108-.824.824-1.943 1.286-3.108 1.285zm4.574-7.945c-.415 0-.789-.25-.948-.632-.159-.384-.071-.825.222-1.118.293-.293.734-.381 1.118-.223.383.16.633.533.633.948 0 .272-.106.533-.298.726-.192.193-.453.301-.725.301l-.002-.002zM93.429 0H74.57C73.151 0 72 1.151 72 2.571V21.43C72 22.849 73.151 24 74.571 24H93.43C94.849 24 96 22.849 96 21.429V2.57C96 1.151 94.849 0 93.429 0zm-.918 15.536c-.069 1.373-.382 2.59-1.384 3.589-1.003 1-2.218 1.32-3.59 1.385-1.415.08-5.656.08-7.071 0-1.373-.07-2.585-.383-3.59-1.385-1.003-1.002-1.319-2.219-1.384-3.59-.08-1.415-.08-5.657 0-7.07.069-1.374.379-2.59 1.385-3.59s2.221-1.316 3.589-1.381c1.415-.08 5.657-.08 7.071 0 1.373.069 2.59.383 3.59 1.385s1.32 2.219 1.384 3.592c.08 1.41.08 5.648 0 7.065z" transform="translate(-1208.000000, -268.000000) translate(1136.000000, 268.000000)"/>
            </g>
        </g>
    </g>
</svg>
