<svg xmlns="http://www.w3.org/2000/svg" width="24" height="24" viewBox="0 0 24 24">
    <g fill="none" fill-rule="evenodd">
        <g fill="#FFF" fill-rule="nonzero">
            <g>
                <path d="M118.007 9.113l5.1 2.898-5.1 2.898V9.113zM132 2.57V21.43c0 1.42-1.152 2.571-2.571 2.571H110.57c-1.42 0-2.571-1.152-2.571-2.571V2.57C108 1.151 109.152 0 110.571 0h18.858C130.849 0 132 1.152 132 2.571zm-2.25 9.445s0-3.193-.407-4.725c-.225-.846-.884-1.51-1.725-1.736-1.516-.412-7.618-.412-7.618-.412s-6.102 0-7.618.412c-.84.225-1.5.89-1.725 1.736-.407 1.527-.407 4.725-.407 4.725s0 3.193.407 4.725c.225.846.884 1.484 1.725 1.709 1.516.407 7.618.407 7.618.407s6.102 0 7.618-.412c.84-.225 1.5-.863 1.725-1.71.407-1.526.407-4.719.407-4.719z" transform="translate(-1244.000000, -268.000000) translate(1136.000000, 268.000000)"/>
            </g>
        </g>
    </g>
</svg>
