<svg viewBox="0 0 10 10" xmlns="http://www.w3.org/2000/svg"><path d="m16.4285718 22.0000004c.4733015 0 .8571429-.3838414.8571429-.8571429v-3.8571428h3.8571428c.4733015 0 .8571429-.3838414.8571429-.8571429v-.8571429c0-.4733014-.3838414-.8571428-.8571429-.8571428h-3.8571428v-3.8571429c0-.4733014-.3838414-.8571428-.8571429-.8571428h-.8571429c-.4733014 0-.8571428.3838414-.8571428.8571428v3.8571429h-3.8571429c-.4733014 0-.8571428.3838414-.8571428.8571428v.8571429c0 .4733015.3838414.8571429.8571428.8571429h3.8571429v3.8571428c0 .4733015.3838414.8571429.8571428.8571429z" fill="#ae2830" transform="matrix(.70710678 .70710678 -.70710678 .70710678 5 -17.627417)"/></svg>