<svg height="12" viewBox="0 0 12 12" width="12" xmlns="http://www.w3.org/2000/svg"><path d="m16.4285714 75c.4733015 0 .8571429-.3838414.8571429-.8571429v-3.8571428h3.8571428c.4733015 0 .8571429-.3838414.8571429-.8571429v-.8571428c0-.4733015-.3838414-.8571429-.8571429-.8571429h-3.8571428v-3.8571428c0-.4733015-.3838414-.8571429-.8571429-.8571429h-.8571428c-.4733015 0-.8571429.3838414-.8571429.8571429v3.8571428h-3.8571428c-.4733015 0-.8571429.3838414-.8571429.8571429v.8571428c0 .4733015.3838414.8571429.8571429.8571429h3.8571428v3.8571428c0 .4733015.3838414.8571429.8571429.8571429z" transform="translate(-10 -63)"/></svg>