<svg enable-background="new 0 0 749.2 186.7" viewBox="0 0 749.2 186.7" xmlns="http://www.w3.org/2000/svg"><g fill="#af272f"><path d="m264.9 35.2c0 4.6 0 10.3.2 15.4-4-4.9-9.6-11.1-13.4-15.3l-30.8-33.7-.1-.2h-8.1v71.2h11.7v-35.7c0-5 0-10.6-.2-16.6 6.3 7.4 11.3 13.2 15.5 17.7l33 36.1h3.9v-72.7h-11.7z"/><path d="m326.9 0c-18.5 0-37.7 13.8-37.7 36.9 0 23.2 19.2 37 37.7 37s37.7-13.8 37.7-37c0-23.1-19.2-36.9-37.7-36.9zm25.9 36.9c0 13.2-9.7 26.8-25.9 26.8-12.6 0-25.9-9.4-25.9-26.8 0-17.3 13.3-26.7 25.9-26.7 16.2 0 25.9 13.6 25.9 26.7z"/><path d="m409.5 39.9c7.7-3.3 12-9.9 12-18.3 0-7.9-3.8-12.6-7-15.2-3.9-3.2-9.2-5-14.6-5h-22.7v71.2h11.6v-30.8h9.1l22 30.6.1.2h13.7zm.2-18.3c0 7.5-6.2 10.2-11.6 10.2h-9.3v-20.3h9.3c5.3 0 11.6 2.6 11.6 10.1z"/><path d="m502.9 86.9c1.1 0 2.2-.1 3.1-.3h.2l7.8-10.9-1.6.6c-2.8 1.1-5.2 1.3-7.3 1.3-4.3 0-8.5-1-13-3.2-3.4-1.6-5.7-2.7-7.4-3.3 12.1-4.1 23.9-16 23.9-34.2 0-23.1-19.2-36.9-37.7-36.9s-37.7 13.8-37.7 36.9c0 22.1 17 35.3 33.9 36.8 2.1 1 9.1 4.2 17.1 8.3 6.6 3.6 11.6 4.9 18.7 4.9zm-6.1-50c0 13.2-9.7 26.8-25.9 26.8-12.6 0-25.9-9.4-25.9-26.8 0-17.3 13.3-26.7 25.9-26.7 16.2 0 25.9 13.6 25.9 26.7z"/><path d="m548.1 73.9c17.4 0 29.1-10.7 29.1-26.6v-45.9h-11.3v44.8c0 10.9-6.4 17.2-17.6 17.2-11.1 0-17.5-6.3-17.5-17.2v-44.8h-11.8v45.9c0 16 11.7 26.6 29.1 26.6z"/><path d="m633.1 62.5h-31v-20.6h22.8v-10.1h-22.8v-20.2h27.2v-10.2h-38.9v71.2h42.7z"/><path d="m667.1 29.3c-7.2-2.5-11-6.1-11-10.4 0-5.3 4.6-9.1 11-9.1 5.8 0 11.1 2.4 13.3 4l.6.4 2.3-9.9-.3-.2c-2.7-2-8.8-4.2-15.6-4.2-15.7 0-22.7 9.9-22.7 19.6s6.7 17.1 19.5 21.3c8.2 2.7 11.9 6.5 11.9 12.4 0 6.2-5 10.4-12.5 10.4-7.3 0-14.1-2.3-20.8-7.1l-1-.7 2.7 13.1.2.1c3.3 2.2 10.2 4.8 18.4 4.8 15.5 0 24.7-8.1 24.7-21.6.1-10.7-6.5-18.1-20.7-22.9z"/><path d="m692.4.4v10.2h22.6v61h11.6v-61h22.6v-10.2z"/><path d="m245.5 167.7c-19.1 0-27.8-13.8-27.8-26.7s8.7-26.8 27.8-26.8c7.1 0 13.9 2.4 17.3 4.5l.6.4 2.1-10.3-.3-.2c-3.8-2.1-10.5-4.7-20.9-4.7-9.4 0-18.8 3.4-25.8 9.3-5.7 4.8-12.5 13.5-12.5 27.8 0 14.1 6.8 22.8 12.5 27.6 7 5.9 16.5 9.3 25.9 9.3 8.6 0 13.8-1 18.6-3.5l.2-.1 2.5-11.6-1 .6c-4.8 2.9-11.6 4.4-19.2 4.4z"/><path d="m313.4 104c-18.5 0-37.7 13.8-37.7 36.9 0 23.2 19.2 37 37.7 37s37.7-13.8 37.7-37c0-23.1-19.1-36.9-37.7-36.9zm25.9 36.9c0 13.2-9.7 26.8-25.9 26.8-12.6 0-25.9-9.4-25.9-26.8 0-17.3 13.3-26.7 25.9-26.7 16.3 0 25.9 13.6 25.9 26.7z"/><path d="m372.2 105.4h-11.6v71.2h42.6v-10.1h-31z"/><path d="m427 105.4h-11.6v71.2h42.5v-10.1h-30.9z"/><path d="m479.6 145.9h22.8v-10.1h-22.8v-20.2h27.2v-10.2h-38.9v71.2h42.7v-10.1h-31z"/><path d="m555.3 150.4h16.2v13.9c-3.3 2.2-8.3 3.4-14.4 3.4-13.4 0-27.9-8.3-27.9-26.6 0-17.7 14-26.9 27.8-26.9 6.7 0 13.7 2 19.2 5.5l.6.4 2.2-10.3-.3-.2c-5.7-3.7-13.9-5.7-22.9-5.7-9.4 0-18.8 3.4-25.8 9.3-5.7 4.8-12.5 13.5-12.5 27.8 0 24 20.1 36.9 39 36.9 11.2 0 19.4-2.4 25.9-7.7l.2-.2v-29.2h-27.3z"/><path d="m604.7 145.9h22.7v-10.1h-22.7v-20.2h27.1v-10.2h-38.8v71.2h42.7v-10.1h-31z"/><path d="m150.2 31.4c0 17.2-13.8 31-31 31.1s-31.1-13.8-31.2-31c0-17.1 14-31.1 31.1-31.1 17.2 0 31.1 13.9 31.1 31z"/></g><path d="m159.6 77.2c-21.5 1.7-41.5 10.9-55.2 24.8-7 7.1-12.5 15.6-16.1 25.2-4.4 11.6-4.8 28-4.8 39v20.9c23.8-11.7 40.7-24.3 52.2-36.9 15.9-17.3 22.2-37.5 23.1-55.2.6-10.1.8-17.8.8-17.8z" fill="#f68b2d"/><path d="m0 77.2c21.5 1.7 41.5 10.9 55.2 24.8 7 7.1 12.5 15.6 16.1 25.2 4.4 11.6 4.8 28 4.8 39v20.9c-23.9-11.7-40.7-24.3-52.3-36.9-15.8-17.3-22.2-37.5-23.1-55.3-.5-10-.7-17.7-.7-17.7z" fill="#ffbd00"/><path d="m70.9.5h-70.9v69.8c36.4-4.9 65.4-33.5 70.9-69.8z" fill="#ef3340"/></svg>