<?xml version="1.0" encoding="utf-8"?>
<!-- Generator: Adobe Illustrator 25.2.3, SVG Export Plug-In . SVG Version: 6.00 Build 0)  -->
<svg version="1.1" id="new_logo" xmlns="http://www.w3.org/2000/svg" xmlns:xlink="http://www.w3.org/1999/xlink" x="0px" y="0px"
	 viewBox="0 0 749.2 186.7" style="enable-background:new 0 0 749.2 186.7;" xml:space="preserve">
<style type="text/css">
	.st0{fill:#AF272F;}
	.st1{fill:#F68B2D;}
	.st2{fill:#F6BE00;}
	.st3{fill:#EF3340;}
	.st4{fill:#FFBD00;}
</style>
<g>
	<path class="st0" d="M264.9,35.2c0,4.6,0,10.3,0.2,15.4c-4-4.9-9.6-11.1-13.4-15.3L220.9,1.6l-0.1-0.2h-8.1v71.2h11.7V36.9
		c0-5,0-10.6-0.2-16.6c6.3,7.4,11.3,13.2,15.5,17.7l33,36.1h3.9V1.4h-11.7V35.2z"/>
	<path class="st0" d="M326.9,0c-18.5,0-37.7,13.8-37.7,36.9c0,23.2,19.2,37,37.7,37s37.7-13.8,37.7-37C364.6,13.8,345.4,0,326.9,0z
		 M352.8,36.9c0,13.2-9.7,26.8-25.9,26.8c-12.6,0-25.9-9.4-25.9-26.8c0-17.3,13.3-26.7,25.9-26.7C343.1,10.2,352.8,23.8,352.8,36.9z
		"/>
	<path class="st0" d="M409.5,39.9c7.7-3.3,12-9.9,12-18.3c0-7.9-3.8-12.6-7-15.2c-3.9-3.2-9.2-5-14.6-5h-22.7v71.2h11.6V41.8h9.1
		l22,30.6l0.1,0.2h13.7L409.5,39.9z M409.7,21.6c0,7.5-6.2,10.2-11.6,10.2h-9.3V11.5h9.3C403.4,11.5,409.7,14.1,409.7,21.6z"/>
	<path class="st0" d="M502.9,86.9c1.1,0,2.2-0.1,3.1-0.3l0.2,0l7.8-10.9l-1.6,0.6c-2.8,1.1-5.2,1.3-7.3,1.3c-4.3,0-8.5-1-13-3.2
		c-3.4-1.6-5.7-2.7-7.4-3.3c12.1-4.1,23.9-16,23.9-34.2c0-23.1-19.2-36.9-37.7-36.9s-37.7,13.8-37.7,36.9c0,22.1,17,35.3,33.9,36.8
		c2.1,1,9.1,4.2,17.1,8.3C490.8,85.6,495.8,86.9,502.9,86.9z M496.8,36.9c0,13.2-9.7,26.8-25.9,26.8c-12.6,0-25.9-9.4-25.9-26.8
		c0-17.3,13.3-26.7,25.9-26.7C487.1,10.2,496.8,23.8,496.8,36.9z"/>
	<path class="st0" d="M548.1,73.9c17.4,0,29.1-10.7,29.1-26.6V1.4h-11.3v44.8c0,10.9-6.4,17.2-17.6,17.2c-11.1,0-17.5-6.3-17.5-17.2
		V1.4H519v45.9C519,63.3,530.7,73.9,548.1,73.9z"/>
	<polygon class="st0" points="633.1,62.5 602.1,62.5 602.1,41.9 624.9,41.9 624.9,31.8 602.1,31.8 602.1,11.6 629.3,11.6 629.3,1.4 
		590.4,1.4 590.4,72.6 633.1,72.6 	"/>
	<path class="st0" d="M667.1,29.3c-7.2-2.5-11-6.1-11-10.4c0-5.3,4.6-9.1,11-9.1c5.8,0,11.1,2.4,13.3,4l0.6,0.4l2.3-9.9l-0.3-0.2
		c-2.7-2-8.8-4.2-15.6-4.2c-15.7,0-22.7,9.9-22.7,19.6s6.7,17.1,19.5,21.3c8.2,2.7,11.9,6.5,11.9,12.4c0,6.2-5,10.4-12.5,10.4
		c-7.3,0-14.1-2.3-20.8-7.1l-1-0.7l2.7,13.1l0.2,0.1c3.3,2.2,10.2,4.8,18.4,4.8c15.5,0,24.7-8.1,24.7-21.6
		C687.9,41.5,681.3,34.1,667.1,29.3z"/>
	<polygon class="st0" points="692.4,0.4 692.4,10.6 715,10.6 715,71.6 726.6,71.6 726.6,10.6 749.2,10.6 749.2,0.4 	"/>
	<path class="st0" d="M245.5,167.7c-19.1,0-27.8-13.8-27.8-26.7c0-12.9,8.7-26.8,27.8-26.8c7.1,0,13.9,2.4,17.3,4.5l0.6,0.4
		l2.1-10.3l-0.3-0.2c-3.8-2.1-10.5-4.7-20.9-4.7c-9.4,0-18.8,3.4-25.8,9.3c-5.7,4.8-12.5,13.5-12.5,27.8c0,14.1,6.8,22.8,12.5,27.6
		c7,5.9,16.5,9.3,25.9,9.3c8.6,0,13.8-1,18.6-3.5l0.2-0.1l2.5-11.6l-1,0.6C259.9,166.2,253.1,167.7,245.5,167.7z"/>
	<path class="st0" d="M313.4,104c-18.5,0-37.7,13.8-37.7,36.9c0,23.2,19.2,37,37.7,37s37.7-13.8,37.7-37
		C351.1,117.8,332,104,313.4,104z M339.3,140.9c0,13.2-9.7,26.8-25.9,26.8c-12.6,0-25.9-9.4-25.9-26.8c0-17.3,13.3-26.7,25.9-26.7
		C329.7,114.2,339.3,127.8,339.3,140.9z"/>
	<polygon class="st0" points="372.2,105.4 360.6,105.4 360.6,176.6 403.2,176.6 403.2,166.5 372.2,166.5 	"/>
	<polygon class="st0" points="427,105.4 415.4,105.4 415.4,176.6 457.9,176.6 457.9,166.5 427,166.5 	"/>
	<polygon class="st0" points="479.6,145.9 502.4,145.9 502.4,135.8 479.6,135.8 479.6,115.6 506.8,115.6 506.8,105.4 467.9,105.4 
		467.9,176.6 510.6,176.6 510.6,166.5 479.6,166.5 	"/>
	<path class="st0" d="M555.3,150.4h16.2v13.9c-3.3,2.2-8.3,3.4-14.4,3.4c-13.4,0-27.9-8.3-27.9-26.6c0-17.7,14-26.9,27.8-26.9
		c6.7,0,13.7,2,19.2,5.5l0.6,0.4l2.2-10.3l-0.3-0.2c-5.7-3.7-13.9-5.7-22.9-5.7c-9.4,0-18.8,3.4-25.8,9.3
		c-5.7,4.8-12.5,13.5-12.5,27.8c0,24,20.1,36.9,39,36.9c11.2,0,19.4-2.4,25.9-7.7l0.2-0.2v-29.2h-27.3V150.4z"/>
	<polygon class="st0" points="604.7,145.9 627.4,145.9 627.4,135.8 604.7,135.8 604.7,115.6 631.8,115.6 631.8,105.4 593,105.4 
		593,176.6 635.7,176.6 635.7,166.5 604.7,166.5 	"/>
	<path class="st0" d="M150.2,31.4c0,17.2-13.8,31-31,31.1c-17.2,0.1-31.1-13.8-31.2-31C88,14.4,102,0.4,119.1,0.4
		C136.3,0.4,150.2,14.3,150.2,31.4z"/>
	<path class="st1" d="M159.6,77.2c-21.5,1.7-41.5,10.9-55.2,24.8c-7,7.1-12.5,15.6-16.1,25.2c-4.4,11.6-4.8,28-4.8,39
		c0,7.1,0,15.2,0,20.9c23.8-11.7,40.7-24.3,52.2-36.9c15.9-17.3,22.2-37.5,23.1-55.2C159.4,84.9,159.6,77.2,159.6,77.2z"/>
	<path class="st4" d="M0,77.2c21.5,1.7,41.5,10.9,55.2,24.8c7,7.1,12.5,15.6,16.1,25.2c4.4,11.6,4.8,28,4.8,39c0,7.1,0,15.2,0,20.9
		c-23.9-11.7-40.7-24.3-52.3-36.9C8,132.9,1.6,112.7,0.7,94.9C0.2,84.9,0,77.2,0,77.2z"/>
	<path class="st3" d="M70.9,0.5H0v69.8C36.4,65.4,65.4,36.8,70.9,0.5z"/>
</g>
</svg>
