<svg viewBox="0 0 750 188" xmlns="http://www.w3.org/2000/svg"><g fill="#af272f"><path d="m265.16 35.25c0 4.63 0 10.3.17 15.43-9.13-11.1-34.53-38.19-44.33-49.15h-8.09v71.18h11.67c-.07-12.22.17-40.2-.19-52.27 11.76 14.1 36.53 40.54 48.49 53.8h3.91v-72.71h-11.63z"/><path d="m327.16.1c-49.73.63-49.63 73.25 0 73.91 49.65-.63 49.71-73.33 0-73.91zm25.9 36.9c1.13 32.56-50.93 37.75-51.8 0 .85-37.65 52.94-32.38 51.8 0z"/><path d="m409.79 40c13.46-5 16.29-24.77 5-33.48-8-7.63-27.41-4.35-37.31-5v71.18h11.52v-30.8h9.15c.15.2 22 30.62 22.15 30.8h13.7zm.15-18.26c-.35 12.07-13.06 10.06-20.94 10.17v-20.36c7.89.09 20.62-1.86 20.94 10.19z"/><path d="m503.16 87a18 18 0 0 0 3.27-.34l7.82-10.89c-9.91 4.93-20.16-.44-29.25-4.57 39.89-14.51 25.21-72.65-13.85-71.11-47.37.16-50.71 69.31-3.76 73.7 6.4 2.32 25.05 14.63 35.77 13.21zm-6.11-50c1.13 32.56-50.92 37.75-51.8 0 .86-37.66 52.94-32.38 51.8 0z"/><path d="m548.38 74c40.67.49 26.85-47.5 29.1-72.47h-11.34v44.83c0 10.94-6.43 17.21-17.65 17.21s-17.49-6.27-17.49-17.21v-44.83h-11.72c2.15 24.83-11.38 73.19 29.1 72.47z"/><path d="m633.37 62.58h-31v-20.58h22.77v-10.11h-22.79v-20.23h27.17v-10.13h-38.84v71.18h42.69z"/><path d="m667.37 29.39c-25.53-10.19-1.84-27.72 14-15l2.34-9.85c-31.36-18.77-58.55 23.56-19.08 36.46 27 9.89 4.62 35.77-22.45 15l2.72 13.11c36.46 20.61 65.1-24.64 22.47-39.72z"/><path d="m692.66.53v10.13h22.55v61.05h11.67v-61h22.55v-10.18z"/><path d="m245.71 167.79c-50.25-4.26-25.73-73.33 17.94-48.51l2.09-10.28c-21.93-12.1-60.06-1.36-59.58 32.15.11 32.21 34 43.44 57.15 33.28l2.49-11.59c-5.2 3.33-11.81 4.92-20.09 4.95z"/><path d="m313.68 104.1c-49.73.64-49.62 73.22 0 73.9 49.64-.63 49.73-73.33 0-73.9zm25.9 36.9c1.13 32.56-50.92 37.75-51.8 0 .86-37.66 52.94-32.38 51.8 0z"/><path d="m372.48 105.53h-11.67v71.18h42.58v-10.13h-30.91z"/><path d="m427.26 105.53h-11.67v71.18h42.58v-10.13h-30.91z"/><path d="m479.84 146h22.77v-10.11h-22.77v-20.23h27.16v-10.13h-38.83v71.18h42.69v-10.13h-31z"/><path d="m555.51 150.53h16.17v13.87c-15.94 8.73-42.47.95-42.23-23.17.31-26.57 29.78-33.08 47.58-21l2.2-10.28c-23.6-13.81-61.35-3.14-61.56 31.14-.3 35.17 43.16 46.22 65.18 29.06v-29.15h-27.34z"/><path d="m604.9 146h22.77v-10.11h-22.77v-20.23h27.17v-10.13h-38.84v71.18h42.69v-10.13h-31z"/><path d="m150.44 31.53c-.7 40.82-61.42 40.83-62.12 0 .69-40.86 61.5-40.8 62.12 0z"/></g><path d="m159.81 77.29c-32 2.7-60.25 20.64-71.31 50-6.55 18.88-4.34 41-4.76 59.89 49.4-22.56 79.52-59.3 76.07-109.86z" fill="#f68b2d"/><path d="m.28 77.29c32 2.7 60.26 20.63 71.3 50 6.56 18.88 4.34 41 4.77 59.89-49.43-22.58-79.44-59.34-76.07-109.89z" fill="#ffbd00"/><path d="m71.09.64h-70.85v69.78a83.13 83.13 0 0 0 70.85-69.78z" fill="#ef3340"/></svg>