<?xml version="1.0" encoding="UTF-8"?>
<svg width="32px" height="25px" viewBox="0 0 32 25" version="1.1" xmlns="http://www.w3.org/2000/svg" xmlns:xlink="http://www.w3.org/1999/xlink">
    <title>“ copy 2</title>
    <g id="Pattern-library" stroke="none" stroke-width="1" fill="none" fill-rule="evenodd">
        <g id="NOR-WRS---UI-pattern-library---Approved" transform="translate(-215.000000, -1784.000000)" fill="#AE2830" fill-rule="nonzero">
            <g id="Typography-3" transform="translate(115.000000, 502.000000)">
                <g id="Paragraph-1-Copy-2" transform="translate(100.000000, 878.000000)">
                    <path d="M8.39746787,429 C10.1162478,429 11.6079033,428.430199 12.8724343,427.290598 C14.1369653,426.150997 14.7692308,424.821462 14.7692308,423.301994 C14.7692308,422.566002 14.6525993,421.853751 14.4193363,421.165242 C14.1860733,420.476733 13.7870708,419.847578 13.2223288,419.277778 C12.6330328,418.684236 11.8595818,418.221273 10.9019758,417.888889 C9.94436984,417.556505 8.70439286,417.390313 7.18204489,417.390313 L7.18204489,417.390313 L5.11950892,417.390313 C5.36504892,414.921178 6.2735469,412.820038 7.84500288,411.086895 C9.41645885,409.353751 11.5894878,407.834283 14.3640898,406.52849 L14.3640898,406.52849 L12.7435258,404 C9.23230386,405.495726 6.2305774,407.691833 3.73834644,410.588319 C1.24611548,413.484805 0,416.35755 0,419.206553 C0,422.269231 0.724342989,424.667142 2.17302897,426.400285 C3.62171494,428.133428 5.69652791,429 8.39746787,429 Z M25.6282371,429 C27.3470171,429 28.8386725,428.430199 30.1032035,427.290598 C31.3677345,426.150997 32,424.821462 32,423.301994 C32,422.566002 31.8833685,421.853751 31.6501055,421.165242 C31.4168425,420.476733 31.01784,419.847578 30.453098,419.277778 C29.863802,418.684236 29.090351,418.221273 28.1327451,417.888889 C27.1751391,417.556505 25.9351621,417.390313 24.4128141,417.390313 L24.4128141,417.390313 L22.3502782,417.390313 C22.5958181,414.921178 23.5043161,412.820038 25.0757721,411.086895 C26.6472281,409.353751 28.820257,407.834283 31.594859,406.52849 L31.594859,406.52849 L29.974295,404 C26.4630731,405.495726 23.4613466,407.691833 20.9691157,410.588319 C18.4768847,413.484805 17.2307692,416.35755 17.2307692,419.206553 C17.2307692,422.269231 17.9551122,424.667142 19.4037982,426.400285 C20.8524842,428.133428 22.9272971,429 25.6282371,429 Z" id="“-copy-2"></path>
                </g>
            </g>
        </g>
    </g>
</svg>