<?xml version="1.0" encoding="UTF-8"?>
<svg width="100px" height="79px" viewBox="0 0 100 79" version="1.1" xmlns="http://www.w3.org/2000/svg" xmlns:xlink="http://www.w3.org/1999/xlink">
    <title>Quotation-large-light</title>
    <g id="Pattern-library" stroke="none" stroke-width="1" fill="none" fill-rule="evenodd">
        <g id="NOR-WRS---UI-pattern-library---Approved" transform="translate(-875.000000, -2576.000000)" fill="#F5E5E6" fill-rule="nonzero">
            <g id="Group-19" transform="translate(60.000000, 2392.000000)">
                <g id="Group-2-Copy" transform="translate(490.000000, 168.000000)">
                    <path d="M350.895657,94.2178218 C356.195938,94.2178218 360.795824,92.4350794 364.695316,88.8695947 C368.594808,85.3041099 370.544554,81.1443777 370.544554,76.390398 C370.544554,74.0876891 370.184893,71.8592611 369.465569,69.7051141 C368.746245,67.5509671 367.515823,65.5825224 365.774302,63.79978 C363.957063,61.9427567 361.571936,60.4942785 358.618923,59.4543454 C355.665909,58.4144124 351.842136,57.8944459 347.147601,57.8944459 L347.147601,57.8944459 L340.787265,57.8944459 C341.544447,50.1692289 344.346024,43.5953664 349.191995,38.1728583 C354.037966,32.7503502 360.739035,27.9963706 369.295203,23.9109193 L369.295203,23.9109193 L364.297795,16 C353.470079,20.6796987 344.213517,27.550685 336.52811,36.6129587 C328.842703,45.6752325 325,54.6632253 325,63.5769372 C325,73.1591775 327.23369,80.6615516 331.701069,86.0840597 C336.168449,91.5065678 342.566644,94.2178218 350.895657,94.2178218 Z M405.351102,94.2178218 C410.651383,94.2178218 415.25127,92.4350794 419.150762,88.8695947 C423.050254,85.3041099 425,81.1443777 425,76.390398 C425,74.0876891 424.640338,71.8592611 423.921014,69.7051141 C423.20169,67.5509671 421.971268,65.5825224 420.229747,63.79978 C418.412508,61.9427567 416.027382,60.4942785 413.074369,59.4543454 C410.121355,58.4144124 406.297581,57.8944459 401.603047,57.8944459 L401.603047,57.8944459 L395.24271,57.8944459 C395.999893,50.1692289 398.80147,43.5953664 403.647441,38.1728583 C408.493412,32.7503502 415.194481,27.9963706 423.750648,23.9109193 L423.750648,23.9109193 L418.753241,16 C407.925524,20.6796987 398.668963,27.550685 390.983556,36.6129587 C383.298149,45.6752325 379.455446,54.6632253 379.455446,63.5769372 C379.455446,73.1591775 381.689135,80.6615516 386.156515,86.0840597 C390.623894,91.5065678 397.02209,94.2178218 405.351102,94.2178218 Z" id="Quotation-large-light"></path>
                </g>
            </g>
        </g>
    </g>
</svg>