<?xml version="1.0" encoding="UTF-8"?>
<svg width="56px" height="44px" viewBox="0 0 56 44" version="1.1" xmlns="http://www.w3.org/2000/svg" xmlns:xlink="http://www.w3.org/1999/xlink">
    <title>Quotation-small-light</title>
    <g id="Pattern-library" stroke="none" stroke-width="1" fill="none" fill-rule="evenodd">
        <g id="NOR-WRS---UI-pattern-library---Approved" transform="translate(-148.000000, -2768.000000)" fill="#F5E5E6" fill-rule="nonzero">
            <g id="Group-19" transform="translate(60.000000, 2392.000000)">
                <g id="Group-2-Copy" transform="translate(80.000000, 168.000000)">
                    <path d="M22.7830424,252 C25.8088113,252 28.4347465,250.997151 30.6608479,248.991453 C32.8869493,246.985755 34,244.645774 34,241.97151 C34,240.676163 33.79468,239.422602 33.3840399,238.210826 C32.9733998,236.99905 32.2709892,235.891738 31.276808,234.888889 C30.2394015,233.844255 28.8778055,233.02944 27.19202,232.444444 C25.5062344,231.859449 23.3233583,231.566952 20.6433915,231.566952 L20.6433915,231.566952 L17.0124688,231.566952 C17.4447215,227.221273 19.0440565,223.523267 21.8104738,220.472934 C24.5768911,217.422602 28.4023275,214.748338 33.286783,212.450142 L33.286783,212.450142 L30.4339152,208 C24.2527016,210.632479 18.9684123,214.497626 14.5810474,219.595442 C10.1936825,224.693257 8,229.749288 8,234.763533 C8,240.153846 9.27514547,244.374169 11.8254364,247.424501 C14.3757273,250.474834 18.0282627,252 22.7830424,252 Z M52.7830424,252 C55.8088113,252 58.4347465,250.997151 60.6608479,248.991453 C62.8869493,246.985755 64,244.645774 64,241.97151 C64,240.676163 63.79468,239.422602 63.3840399,238.210826 C62.9733998,236.99905 62.2709892,235.891738 61.276808,234.888889 C60.2394015,233.844255 58.8778055,233.02944 57.19202,232.444444 C55.5062344,231.859449 53.3233583,231.566952 50.6433915,231.566952 L50.6433915,231.566952 L47.0124688,231.566952 C47.4447215,227.221273 49.0440565,223.523267 51.8104738,220.472934 C54.5768911,217.422602 58.4023275,214.748338 63.286783,212.450142 L63.286783,212.450142 L60.4339152,208 C54.2527016,210.632479 48.9684123,214.497626 44.5810474,219.595442 C40.1936825,224.693257 38,229.749288 38,234.763533 C38,240.153846 39.2751455,244.374169 41.8254364,247.424501 C44.3757273,250.474834 48.0282627,252 52.7830424,252 Z" id="Quotation-small-light"></path>
                </g>
            </g>
        </g>
    </g>
</svg>