<?xml version="1.0" encoding="UTF-8"?>
<svg width="64px" height="50px" viewBox="0 0 64 50" version="1.1" xmlns="http://www.w3.org/2000/svg" xmlns:xlink="http://www.w3.org/1999/xlink">
    <title>“ copy</title>
    <g id="Pattern-library" stroke="none" stroke-width="1" fill="none" fill-rule="evenodd">
        <g id="NOR-WRS---UI-pattern-library---Approved" transform="translate(-561.000000, -1768.000000)" fill="#AE2830" fill-rule="nonzero">
            <g id="Typography-3" transform="translate(115.000000, 502.000000)">
                <g id="Paragraph-1-Copy-2" transform="translate(100.000000, 878.000000)">
                    <path d="M362.488778,438 C365.863674,438 368.792602,436.860399 371.275561,434.581197 C373.75852,432.301994 375,429.642925 375,426.603989 C375,425.132004 374.770989,423.707502 374.312968,422.330484 C373.854946,420.953466 373.071488,419.695157 371.962594,418.555556 C370.805486,417.368471 369.286783,416.442545 367.406484,415.777778 C365.526185,415.11301 363.091438,414.780627 360.102244,414.780627 L360.102244,414.780627 L356.052369,414.780627 C356.534497,409.842355 358.318371,405.640076 361.40399,402.173789 C364.489609,398.707502 368.756442,395.668566 374.204489,393.05698 L374.204489,393.05698 L371.022444,388 C364.128013,390.991453 358.233998,395.383666 353.340399,401.176638 C348.4468,406.969611 346,412.7151 346,418.413105 C346,424.538462 347.422278,429.334283 350.266833,432.80057 C353.111388,436.266857 357.18537,438 362.488778,438 Z M397.488778,438 C400.863674,438 403.792602,436.860399 406.275561,434.581197 C408.75852,432.301994 410,429.642925 410,426.603989 C410,425.132004 409.770989,423.707502 409.312968,422.330484 C408.854946,420.953466 408.071488,419.695157 406.962594,418.555556 C405.805486,417.368471 404.286783,416.442545 402.406484,415.777778 C400.526185,415.11301 398.091438,414.780627 395.102244,414.780627 L395.102244,414.780627 L391.052369,414.780627 C391.534497,409.842355 393.318371,405.640076 396.40399,402.173789 C399.489609,398.707502 403.756442,395.668566 409.204489,393.05698 L409.204489,393.05698 L406.022444,388 C399.128013,390.991453 393.233998,395.383666 388.340399,401.176638 C383.4468,406.969611 381,412.7151 381,418.413105 C381,424.538462 382.422278,429.334283 385.266833,432.80057 C388.111388,436.266857 392.18537,438 397.488778,438 Z" id="“-copy"></path>
                </g>
            </g>
        </g>
    </g>
</svg>