<svg height="188" viewBox="0 0 750 188" width="750" xmlns="http://www.w3.org/2000/svg"><g fill="none" transform="translate(.24 .09)"><g fill="#af272f"><path d="m264.92 35.16c0 4.63 0 10.3.17 15.43-4-4.91-9.64-11.1-13.41-15.28l-30.78-33.7-.14-.17h-8.09v71.18h11.67v-35.71c0-5 0-10.57-.19-16.56 6.26 7.38 11.33 13.17 15.49 17.67l33 36.13h3.91v-72.71h-11.63z"/><path d="m326.92.01c-18.53 0-37.68 13.81-37.68 36.91s19.15 37 37.68 37 37.68-13.84 37.68-37-19.16-36.91-37.68-36.91zm25.9 36.9c0 13.17-9.69 26.78-25.9 26.78-12.56 0-25.9-9.38-25.9-26.78s13.34-26.67 25.9-26.67c16.21.01 25.9 13.57 25.9 26.67z"/><path d="m409.55 39.91c7.416829-2.9882531 12.199779-10.2663091 12-18.26.184093-5.8906569-2.407758-11.5260806-7-15.22-4.160799-3.25633388-9.296474-5.01753932-14.58-5.00012974h-22.73v71.18012974h11.52v-30.8h9.15l22 30.6.15.2h13.7zm.15-18.26c0 7.51-6.25 10.17-11.61 10.17h-9.33v-20.36h9.29c5.4 0 11.65 2.67 11.65 10.17z"/><path d="m502.92 86.91c1.043026.0070924 2.083361-.1067582 3.1-.34h.17l7.82-10.89-1.59.64c-2.322084.914703-4.805238 1.3501053-7.3 1.28-4.519955-.0482832-8.968136-1.1363767-13-3.18-2.388178-1.2428404-4.845529-2.3479807-7.36-3.31 14.50852-5.0403652 24.12649-18.843746 23.83-34.2 0-23.1-19.15-36.91-37.68-36.91s-37.68 13.82-37.68 36.91c0 22.14 17 35.26 33.92 36.79 2.08 1 9.08 4.2 17.06 8.31 5.662344 3.3349846 12.13984 5.0313891 18.71 4.9zm-6.11-50c0 13.17-9.68 26.78-25.9 26.78-12.55 0-25.9-9.38-25.9-26.78s13.35-26.67 25.9-26.67c16.22.01 25.9 13.57 25.9 26.67z"/><path d="m548.14 73.91c17.41 0 29.1-10.67 29.1-26.57v-45.9h-11.34v44.83c0 10.94-6.43 17.21-17.65 17.21s-17.49-6.27-17.49-17.21v-44.83h-11.72v45.93c0 15.9 11.72 26.54 29.1 26.54z"/><path d="m633.13 62.49h-31.02v-20.56h22.77v-10.13h-22.77v-20.23h27.17v-10.13h-38.84v71.18h42.69z"/><path d="m667.13 29.3c-7.2-2.47-11-6.07-11-10.42 0-5.25 4.65-9.07 11.05-9.07 4.737868.04969971 9.365412 1.4362296 13.35 4l.61.44 2.34-9.85-.27-.2c-2.72-2-8.75-4.17-15.59-4.17-15.69 0-22.72 9.87-22.72 19.64s6.74 17.13 19.49 21.27c8.2 2.66 11.86 6.49 11.86 12.39 0 6.22-5 10.39-12.48 10.39-7.28 0-14.09-2.31-20.83-7.06l-1-.73 2.72 13.11.17.11c3.33 2.22 10.15 4.81 18.42 4.81 15.47 0 24.7-8.08 24.7-21.62-.03-10.87-6.64-18.18-20.82-23.04z"/><path d="m692.42.44v10.13h22.55v61.05h11.67v-61.05h22.55v-10.13z"/><path d="m245.47 167.7c-19.08 0-27.77-13.82-27.77-26.67s8.69-26.78 27.77-26.78c7.07 0 13.94 2.36 17.32 4.54l.62.4 2.09-10.28-.32-.18c-3.79-2.14-10.49-4.69-20.92-4.69-9.411137.015601-18.526921 3.28739-25.8 9.26-5.73 4.79-12.54 13.5-12.54 27.76s6.77 22.8 12.45 27.58c7.294354 5.998003 16.446293 9.274885 25.89 9.270005 8.63 0 13.84-1.000005 18.6-3.460005l.21-.11 2.49-11.59-1 .59c-4.64 2.83-11.43 4.36-19.09 4.36z"/><path d="m313.44 104.01c-18.52 0-37.68 13.81-37.68 36.9s19.16 37 37.68 37 37.68-13.84 37.68-37-19.15-36.9-37.68-36.9zm25.9 36.9c0 13.17-9.68 26.78-25.9 26.78-12.55 0-25.9-9.38-25.9-26.78s13.35-26.67 25.9-26.67c16.22.01 25.9 13.57 25.9 26.67z"/><path d="m372.24 105.44h-11.67v71.18h42.58v-10.13h-30.91z"/><path d="m427.02 105.44h-11.67v71.18h42.58v-10.13h-30.91z"/><path d="m479.6 145.93h22.77v-10.13h-22.77v-20.23h27.17v-10.13h-38.84v71.18h42.69v-10.13h-31.02z"/><path d="m555.27 150.44h16.17v13.87c-3.31 2.22-8.26 3.39-14.35 3.39-13.42 0-27.88-8.31-27.88-26.56 0-17.65 14-26.89 27.77-26.89 6.788947.027441 13.436543 1.942088 19.2 5.53l.61.39 2.2-10.28-.29-.19c-5.74-3.67-13.89-5.69-22.93-5.69-9.410849.017249-18.526096 3.288845-25.8 9.26-5.72 4.79-12.54 13.5-12.54 27.76 0 24 20.1 36.91 39 36.91 11.16 0 19.41-2.44 26-7.7l.18-.15v-29.18h-27.34z"/><path d="m604.66 145.93h22.77v-10.13h-22.77v-20.23h27.17v-10.13h-38.84v71.18h42.69v-10.13h-31.02z"/><path d="m150.200058 31.44c0 17.1526624-13.904063 31.058158-31.056726 31.0599982-17.152662.0018402-31.05965-13.9006717-31.063332-31.0533337-.0036806-17.152662 13.897339-31.06114207 31.05-31.06674378 8.24424-.01855228 16.156329 3.24752734 21.98684 9.07616205 5.830511 5.82863473 9.099138 13.73967143 9.083218 21.98391723z"/></g><path d="m159.57 77.2c-21.55 1.65-41.51 10.87-55.23 24.77-7.0724002 7.175818-12.5516672 15.762729-16.08 25.2-4.37 11.6-4.76 28-4.76 39v20.89c23.85-11.69 40.75-24.32 52.25-36.86 13.947714-15.133124 22.137602-34.684092 23.14-55.24.51-10.05.68-17.76.68-17.76z" fill="#f68b2d"/><path d="m.04 77.2c21.55 1.65 41.51 10.87 55.24 24.77 7.0663797 7.176769 12.5389141 15.763809 16.06 25.2 4.38 11.6 4.77 28 4.77 39v20.89c-23.85-11.69-40.74-24.32-52.25-36.86-13.93024442-15.140726-22.10525385-34.689969-23.1-55.24-.55-10.05-.72-17.76-.72-17.76z" fill="#ffbd00"/><path d="m70.85.55h-70.85v69.78c36.4606118-5.0097867 65.2859957-33.3998402 70.85-69.78z" fill="#ef3340"/></g></svg>