<svg height="432" viewBox="0 0 537 432" width="537" xmlns="http://www.w3.org/2000/svg"><g fill="none" transform="translate(.13 .629921)"><g fill="#af272f"><path d="m52.25 288.140079c0 4.63 0 10.3.18 15.43-4-4.91-9.65-11.1-13.42-15.28l-30.77-33.7-.15-.17h-8.09v71.18h11.67v-35.7c0-5 0-10.57-.19-16.56 6.27 7.38 11.34 13.17 15.49 17.67l33 36.13h3.91v-72.72h-11.63z"/><path d="m114.25 252.990079c-18.52 0-37.68 13.81-37.68 36.91s19.16 37 37.68 37 37.68-13.84 37.68-37-19.16-36.91-37.68-36.91zm25.9 36.91c0 13.17-9.69 26.78-25.9 26.78-12.56 0-25.9-9.38-25.9-26.78s13.34-26.67 25.9-26.67c16.21 0 25.9 13.56 25.9 26.67z"/><path d="m196.87 292.870079c7.416829-2.988253 12.199779-10.266309 12-18.26.190443-5.897603-2.402034-11.541797-7-15.24-4.160799-3.256334-9.296474-5.017539-14.58-5.000129h-22.71v71.180129h11.56v-30.8h9.14l22 30.6.15.2h13.64zm.15-18.26c0 7.51-6.25 10.17-11.6 10.17h-9.29v-20.34h9.29c5.36 0 11.61 2.67 11.61 10.17z"/><path d="m290.26 339.900416c1.039726.007048 2.076755-.107059 3.09-.340337l.18-.05 7.81-10.89-1.59.64c-2.318593.914708-4.798486 1.350135-7.29 1.28-4.519775-.049712-8.967636-1.137727-13-3.18-2.411862-1.231682-4.892633-2.323488-7.43-3.27 14.520774-5.02543 24.156349-18.826867 23.87-34.19 0-23.1-19.16-36.91-37.68-36.91s-37.68 13.81-37.68 36.91c0 22.14 17 35.26 33.92 36.79 2.07.95 9.07 4.2 17 8.31 6.65 3.57 11.72 4.900337 18.8 4.900337zm-6.11-50.000337c0 13.17-9.69 26.78-25.9 26.78-12.56 0-25.9-9.38-25.9-26.78s13.34-26.67 25.9-26.67c16.21 0 25.9 13.56 25.9 26.67z"/><path d="m335.48 326.920079c17.4 0 29.1-10.67 29.1-26.57v-45.93h-11.34v44.83c0 10.94-6.44 17.21-17.65 17.21s-17.54-6.27-17.54-17.21v-44.83h-11.67v45.95c0 15.88 11.69 26.55 29.1 26.55z"/><path d="m420.47 315.470079h-31.02v-20.56h22.77v-10.13h-22.77v-20.23h27.17v-10.13h-38.84v71.18h42.69z"/><path d="m454.46 282.280079c-7.19-2.47-11-6.07-11-10.42 0-5.25 4.64-9.07 11-9.07 4.734789.04941 9.3592 1.43604 13.34 4l.61.44 2.34-9.85-.27-.2c-2.71-2-8.75-4.17-15.58-4.17-15.7 0-22.72 9.87-22.72 19.64s6.73 17.13 19.48 21.27c8.21 2.66 11.87 6.49 11.87 12.39 0 6.22-5 10.39-12.48 10.39-7.28 0-14.1-2.31-20.84-7.06l-1-.73 2.72 13.11.17.11c3.33 2.22 10.15 4.81 18.43 4.81 15.46 0 24.700102-8.08 24.700102-21.62.029898-10.87-6.580102-18.18-20.770102-23.04z"/><path d="m479.75 253.420079v10.13h22.55v61.05h11.67v-61.05h22.55v-10.13z"/><path d="m82.87 420.680079c-19.08 0-27.77-13.82-27.77-26.67s8.77-26.78 27.77-26.78c7.07 0 13.94 2.36 17.33 4.54l.62.4 2.09-10.31-.32-.18c-3.79-2.14-10.5-4.69-20.93-4.69-9.4108488.017249-18.5260959 3.288845-25.8 9.26-5.72 4.79-12.54 13.5-12.54 27.76s6.78 22.8 12.46 27.58c7.2830729 6.018155 16.432188 9.316503 25.88 9.33 8.64 0 13.85-1 18.61-3.46l.2-.11 2.5-11.59-1 .59c-4.61 2.8-11.39 4.33-19.1 4.33z"/><path d="m150.87 356.990079c-18.52 0-37.68 13.81-37.68 36.91s19.16 37 37.68 37 37.68-13.84 37.68-37-19.14-36.91-37.68-36.91zm25.9 36.91c0 13.17-9.69 26.78-25.9 26.78-12.55 0-25.9-9.38-25.9-26.78s13.35-26.67 25.9-26.67c16.23 0 25.92 13.56 25.92 26.67z"/><path d="m209.69 358.420079h-11.67v71.18h42.58v-10.13h-30.91z"/><path d="m264.47 358.420079h-11.67v71.18h42.58v-10.13h-30.91z"/><path d="m317.05 398.910079h22.77v-10.13h-22.77v-20.23h27.17v-10.13h-38.84v71.18h42.69v-10.13h-31.02z"/><path d="m392.72 403.420079h16.15v13.87c-3.31 2.22-8.26 3.39-14.35 3.39-13.43 0-27.88-8.31-27.88-26.56 0-17.65 14-26.89 27.77-26.89 6.788947.027442 13.436543 1.942088 19.2 5.53l.61.39 2.2-10.28-.29-.19c-5.75-3.67-13.89-5.69-22.93-5.69-9.410849.017249-18.526096 3.288845-25.8 9.26-5.72 4.79-12.54 13.5-12.54 27.76 0 24 20.1 36.91 39 36.91 11.16 0 19.4-2.44 25.94-7.7l.19-.15v-29.23h-27.27z"/><path d="m442.11 398.910079h22.77v-10.13h-22.77v-20.23h27.17v-10.13h-38.84v71.18h42.69v-10.13h-31.02z"/><path d="m331.010058 31.0600793c0 17.1526624-13.904063 31.058158-31.056726 31.0599982-17.152662.0018402-31.05965-13.9006717-31.063332-31.0533337-.003681-17.152662 13.897339-31.06114209 31.05-31.0667438 8.24424-.01855228 16.156329 3.24752734 21.98684 9.07616205 5.830511 5.82863465 9.099138 13.73967145 9.083218 21.98391725z"/></g><path d="m340.38 76.8200793c-21.51 1.66-41.51 10.87-55.23 24.7699997-7.07028 7.177509-12.549241 15.76394-16.08 25.2-4.37 11.6-4.76 28-4.76 39v20.89c23.85-11.68 40.75-24.32 52.25-36.86 13.949167-15.132191 22.139286-34.68371 23.14-55.2399997.51-10.01.68-17.76.68-17.76z" fill="#f68b2d"/><path d="m180.87 76.8200793c21.55 1.66 41.51 10.87 55.24 24.7699997 7.064257 7.17846 12.536485 15.76502 16.06 25.2 4.38 11.6 4.77 28 4.77 39v20.89c-23.87-11.68-40.76-24.31-52.27-36.86-13.94262-15.135491-22.128673-34.685752-23.13-55.2399997-.52-10.01-.67-17.76-.67-17.76z" fill="#f6be00"/><path d="m251.66.17007928h-70.85v69.78000002c36.462149-5.0066611 65.289098-33.3982553 70.85-69.78000002z" fill="#ef3340"/></g></svg>