<svg xmlns="http://www.w3.org/2000/svg" width="64" height="50" viewBox="0 0 64 50">
    <g fill="none" fill-rule="evenodd">
        <g fill="#AE2830" fill-rule="nonzero">
            <path d="M222.489 2019c3.375 0 6.304-1.14 8.787-3.419 2.483-2.279 3.724-4.938 3.724-7.977 0-1.472-.229-2.897-.687-4.274-.458-1.377-1.242-2.635-2.35-3.774-1.158-1.188-2.676-2.113-4.557-2.778-1.88-.665-4.315-.997-7.304-.997h-4.05c.482-4.939 2.266-9.14 5.352-12.607 3.086-3.466 7.352-6.505 12.8-9.117l-3.182-5.057c-6.894 2.991-12.788 7.384-17.682 13.177-4.893 5.793-7.34 11.538-7.34 17.236 0 6.125 1.422 10.921 4.267 14.388 2.844 3.466 6.918 5.199 12.222 5.199zm35 0c3.375 0 6.304-1.14 8.787-3.419 2.483-2.279 3.724-4.938 3.724-7.977 0-1.472-.229-2.897-.687-4.274-.458-1.377-1.242-2.635-2.35-3.774-1.158-1.188-2.676-2.113-4.557-2.778-1.88-.665-4.315-.997-7.304-.997h-4.05c.482-4.939 2.266-9.14 5.352-12.607 3.086-3.466 7.352-6.505 12.8-9.117l-3.182-5.057c-6.894 2.991-12.788 7.384-17.682 13.177-4.893 5.793-7.34 11.538-7.34 17.236 0 6.125 1.422 10.921 4.267 14.388 2.844 3.466 6.918 5.199 12.222 5.199z" transform="translate(-206.000000, -1969.000000)"/>
        </g>
    </g>
</svg>
