<svg class="svg_sprite" xmlns="http://www.w3.org/2000/svg" xmlns:xlink="http://www.w3.org/1999/xlink"><defs><symbol viewBox="0 0 159.6 186.7" id="NorQuest-badge-colour">
<style type="text/css">
	#NorQuest-badge-colour .st0{fill:#AF272F;}
	#NorQuest-badge-colour .st1{fill:#F68B2D;}
	#NorQuest-badge-colour .st2{fill:#F6BE00;}
	#NorQuest-badge-colour .st3{fill:#EF3340;}
	#NorQuest-badge-colour .st4{fill:#FFFFFF;}
	#NorQuest-badge-colour .st5{fill:#FFBD00;}
</style>
<g>
	<path class="st0" d="M150.2,31.4c0,17.2-13.8,31-31,31.1c-17.2,0.1-31.1-13.8-31.2-31C88,14.4,102,0.4,119.1,0.4
		C136.3,0.4,150.2,14.3,150.2,31.4z" />
	<path class="st1" d="M159.6,77.2c-21.5,1.7-41.5,10.9-55.2,24.8c-7,7.1-12.5,15.6-16.1,25.2c-4.4,11.6-4.8,28-4.8,39
		c0,7.1,0,15.2,0,20.9c23.8-11.7,40.7-24.3,52.2-36.9c15.9-17.3,22.2-37.5,23.1-55.2C159.4,84.9,159.6,77.2,159.6,77.2z" />
	<path class="st5" d="M0,77.2c21.5,1.7,41.5,10.9,55.2,24.8c7,7.1,12.5,15.6,16.1,25.2c4.4,11.6,4.8,28,4.8,39c0,7.1,0,15.2,0,20.9
		c-23.9-11.7-40.7-24.3-52.3-36.9C8,132.9,1.6,112.7,0.7,94.9C0.2,84.9,0,77.2,0,77.2z" />
	<path class="st3" d="M70.9,0.5H0v69.8C36.4,65.4,65.4,36.8,70.9,0.5z" />
</g>
</symbol><symbol viewBox="0 0 159.6 186.7" id="NorQuest-badge-light">
<style type="text/css">
	#NorQuest-badge-light .st0{fill:#AF272F;}
	#NorQuest-badge-light .st1{fill:#F68B2D;}
	#NorQuest-badge-light .st2{fill:#F6BE00;}
	#NorQuest-badge-light .st3{fill:#EF3340;}
	#NorQuest-badge-light .st4{fill:#FFF7E9;}
	#NorQuest-badge-light .st5{fill:#FFFFFF;}
	#NorQuest-badge-light .st6{fill:#FFBD00;}
</style>
<g>
	<path class="st4" d="M150.2,31.4c0,17.2-13.8,31-31,31.1c-17.2,0.1-31.1-13.8-31.2-31C88,14.4,102,0.4,119.1,0.4
		C136.3,0.4,150.2,14.3,150.2,31.4z" />
	<path class="st5" d="M159.6,77.2c-21.5,1.7-41.5,10.9-55.2,24.8c-7,7.1-12.5,15.6-16.1,25.2c-4.4,11.6-4.8,28-4.8,39
		c0,7.1,0,15.2,0,20.9c23.8-11.7,40.7-24.3,52.2-36.9c15.9-17.3,22.2-37.5,23.1-55.2C159.4,84.9,159.6,77.2,159.6,77.2z" />
	<path class="st4" d="M0,77.2c21.5,1.7,41.5,10.9,55.2,24.8c7,7.1,12.5,15.6,16.1,25.2c4.4,11.6,4.8,28,4.8,39c0,7.1,0,15.2,0,20.9
		c-23.9-11.7-40.7-24.3-52.3-36.9C8,132.9,1.6,112.7,0.7,94.9C0.2,84.9,0,77.2,0,77.2z" />
	<path class="st5" d="M70.9,0.5H0v69.8C36.4,65.4,65.4,36.8,70.9,0.5z" />
</g>
</symbol><symbol viewBox="0 0 159.6 186.7" id="NorQuest-badge-white">
<style type="text/css">
	#NorQuest-badge-white .st0{fill:#AF272F;}
	#NorQuest-badge-white .st1{fill:#F68B2D;}
	#NorQuest-badge-white .st2{fill:#F6BE00;}
	#NorQuest-badge-white .st3{fill:#EF3340;}
	#NorQuest-badge-white .st4{fill:#FFFFFF;}
	#NorQuest-badge-white .st5{fill:#FFBD00;}
</style>
<g>
	<path class="st4" d="M150.2,31.4c0,17.2-13.8,31-31,31.1c-17.2,0.1-31.1-13.8-31.2-31C88,14.4,102,0.4,119.1,0.4
		C136.3,0.4,150.2,14.3,150.2,31.4z" />
	<path class="st4" d="M159.6,77.2c-21.5,1.7-41.5,10.9-55.2,24.8c-7,7.1-12.5,15.6-16.1,25.2c-4.4,11.6-4.8,28-4.8,39
		c0,7.1,0,15.2,0,20.9c23.8-11.7,40.7-24.3,52.2-36.9c15.9-17.3,22.2-37.5,23.1-55.2C159.4,84.9,159.6,77.2,159.6,77.2z" />
	<path class="st4" d="M0,77.2c21.5,1.7,41.5,10.9,55.2,24.8c7,7.1,12.5,15.6,16.1,25.2c4.4,11.6,4.8,28,4.8,39c0,7.1,0,15.2,0,20.9
		c-23.9-11.7-40.7-24.3-52.3-36.9C8,132.9,1.6,112.7,0.7,94.9C0.2,84.9,0,77.2,0,77.2z" />
	<path class="st4" d="M70.9,0.5H0v69.8C36.4,65.4,65.4,36.8,70.9,0.5z" />
</g>
</symbol><symbol viewBox="0 0 749.2 186.7" id="NorQuest-logo">
<style type="text/css">
	#NorQuest-logo .st0{fill:#AF272F;}
	#NorQuest-logo .st1{fill:#F68B2D;}
	#NorQuest-logo .st2{fill:#F6BE00;}
	#NorQuest-logo .st3{fill:#EF3340;}
	#NorQuest-logo .st4{fill:#FFBD00;}
</style>
<g>
	<path class="st0" d="M264.9,35.2c0,4.6,0,10.3,0.2,15.4c-4-4.9-9.6-11.1-13.4-15.3L220.9,1.6l-0.1-0.2h-8.1v71.2h11.7V36.9
		c0-5,0-10.6-0.2-16.6c6.3,7.4,11.3,13.2,15.5,17.7l33,36.1h3.9V1.4h-11.7V35.2z" />
	<path class="st0" d="M326.9,0c-18.5,0-37.7,13.8-37.7,36.9c0,23.2,19.2,37,37.7,37s37.7-13.8,37.7-37C364.6,13.8,345.4,0,326.9,0z
		 M352.8,36.9c0,13.2-9.7,26.8-25.9,26.8c-12.6,0-25.9-9.4-25.9-26.8c0-17.3,13.3-26.7,25.9-26.7C343.1,10.2,352.8,23.8,352.8,36.9z
		" />
	<path class="st0" d="M409.5,39.9c7.7-3.3,12-9.9,12-18.3c0-7.9-3.8-12.6-7-15.2c-3.9-3.2-9.2-5-14.6-5h-22.7v71.2h11.6V41.8h9.1
		l22,30.6l0.1,0.2h13.7L409.5,39.9z M409.7,21.6c0,7.5-6.2,10.2-11.6,10.2h-9.3V11.5h9.3C403.4,11.5,409.7,14.1,409.7,21.6z" />
	<path class="st0" d="M502.9,86.9c1.1,0,2.2-0.1,3.1-0.3l0.2,0l7.8-10.9l-1.6,0.6c-2.8,1.1-5.2,1.3-7.3,1.3c-4.3,0-8.5-1-13-3.2
		c-3.4-1.6-5.7-2.7-7.4-3.3c12.1-4.1,23.9-16,23.9-34.2c0-23.1-19.2-36.9-37.7-36.9s-37.7,13.8-37.7,36.9c0,22.1,17,35.3,33.9,36.8
		c2.1,1,9.1,4.2,17.1,8.3C490.8,85.6,495.8,86.9,502.9,86.9z M496.8,36.9c0,13.2-9.7,26.8-25.9,26.8c-12.6,0-25.9-9.4-25.9-26.8
		c0-17.3,13.3-26.7,25.9-26.7C487.1,10.2,496.8,23.8,496.8,36.9z" />
	<path class="st0" d="M548.1,73.9c17.4,0,29.1-10.7,29.1-26.6V1.4h-11.3v44.8c0,10.9-6.4,17.2-17.6,17.2c-11.1,0-17.5-6.3-17.5-17.2
		V1.4H519v45.9C519,63.3,530.7,73.9,548.1,73.9z" />
	<polygon class="st0" points="633.1,62.5 602.1,62.5 602.1,41.9 624.9,41.9 624.9,31.8 602.1,31.8 602.1,11.6 629.3,11.6 629.3,1.4 
		590.4,1.4 590.4,72.6 633.1,72.6 	" />
	<path class="st0" d="M667.1,29.3c-7.2-2.5-11-6.1-11-10.4c0-5.3,4.6-9.1,11-9.1c5.8,0,11.1,2.4,13.3,4l0.6,0.4l2.3-9.9l-0.3-0.2
		c-2.7-2-8.8-4.2-15.6-4.2c-15.7,0-22.7,9.9-22.7,19.6s6.7,17.1,19.5,21.3c8.2,2.7,11.9,6.5,11.9,12.4c0,6.2-5,10.4-12.5,10.4
		c-7.3,0-14.1-2.3-20.8-7.1l-1-0.7l2.7,13.1l0.2,0.1c3.3,2.2,10.2,4.8,18.4,4.8c15.5,0,24.7-8.1,24.7-21.6
		C687.9,41.5,681.3,34.1,667.1,29.3z" />
	<polygon class="st0" points="692.4,0.4 692.4,10.6 715,10.6 715,71.6 726.6,71.6 726.6,10.6 749.2,10.6 749.2,0.4 	" />
	<path class="st0" d="M245.5,167.7c-19.1,0-27.8-13.8-27.8-26.7c0-12.9,8.7-26.8,27.8-26.8c7.1,0,13.9,2.4,17.3,4.5l0.6,0.4
		l2.1-10.3l-0.3-0.2c-3.8-2.1-10.5-4.7-20.9-4.7c-9.4,0-18.8,3.4-25.8,9.3c-5.7,4.8-12.5,13.5-12.5,27.8c0,14.1,6.8,22.8,12.5,27.6
		c7,5.9,16.5,9.3,25.9,9.3c8.6,0,13.8-1,18.6-3.5l0.2-0.1l2.5-11.6l-1,0.6C259.9,166.2,253.1,167.7,245.5,167.7z" />
	<path class="st0" d="M313.4,104c-18.5,0-37.7,13.8-37.7,36.9c0,23.2,19.2,37,37.7,37s37.7-13.8,37.7-37
		C351.1,117.8,332,104,313.4,104z M339.3,140.9c0,13.2-9.7,26.8-25.9,26.8c-12.6,0-25.9-9.4-25.9-26.8c0-17.3,13.3-26.7,25.9-26.7
		C329.7,114.2,339.3,127.8,339.3,140.9z" />
	<polygon class="st0" points="372.2,105.4 360.6,105.4 360.6,176.6 403.2,176.6 403.2,166.5 372.2,166.5 	" />
	<polygon class="st0" points="427,105.4 415.4,105.4 415.4,176.6 457.9,176.6 457.9,166.5 427,166.5 	" />
	<polygon class="st0" points="479.6,145.9 502.4,145.9 502.4,135.8 479.6,135.8 479.6,115.6 506.8,115.6 506.8,105.4 467.9,105.4 
		467.9,176.6 510.6,176.6 510.6,166.5 479.6,166.5 	" />
	<path class="st0" d="M555.3,150.4h16.2v13.9c-3.3,2.2-8.3,3.4-14.4,3.4c-13.4,0-27.9-8.3-27.9-26.6c0-17.7,14-26.9,27.8-26.9
		c6.7,0,13.7,2,19.2,5.5l0.6,0.4l2.2-10.3l-0.3-0.2c-5.7-3.7-13.9-5.7-22.9-5.7c-9.4,0-18.8,3.4-25.8,9.3
		c-5.7,4.8-12.5,13.5-12.5,27.8c0,24,20.1,36.9,39,36.9c11.2,0,19.4-2.4,25.9-7.7l0.2-0.2v-29.2h-27.3V150.4z" />
	<polygon class="st0" points="604.7,145.9 627.4,145.9 627.4,135.8 604.7,135.8 604.7,115.6 631.8,115.6 631.8,105.4 593,105.4 
		593,176.6 635.7,176.6 635.7,166.5 604.7,166.5 	" />
	<path class="st0" d="M150.2,31.4c0,17.2-13.8,31-31,31.1c-17.2,0.1-31.1-13.8-31.2-31C88,14.4,102,0.4,119.1,0.4
		C136.3,0.4,150.2,14.3,150.2,31.4z" />
	<path class="st1" d="M159.6,77.2c-21.5,1.7-41.5,10.9-55.2,24.8c-7,7.1-12.5,15.6-16.1,25.2c-4.4,11.6-4.8,28-4.8,39
		c0,7.1,0,15.2,0,20.9c23.8-11.7,40.7-24.3,52.2-36.9c15.9-17.3,22.2-37.5,23.1-55.2C159.4,84.9,159.6,77.2,159.6,77.2z" />
	<path class="st4" d="M0,77.2c21.5,1.7,41.5,10.9,55.2,24.8c7,7.1,12.5,15.6,16.1,25.2c4.4,11.6,4.8,28,4.8,39c0,7.1,0,15.2,0,20.9
		c-23.9-11.7-40.7-24.3-52.3-36.9C8,132.9,1.6,112.7,0.7,94.9C0.2,84.9,0,77.2,0,77.2z" />
	<path class="st3" d="M70.9,0.5H0v69.8C36.4,65.4,65.4,36.8,70.9,0.5z" />
</g>
</symbol><symbol viewBox="0 0 750 188" id="norquest-logo-horizontal"><g fill="none" transform="translate(.24 .09)"><g fill="#af272f"><path d="m264.92 35.16c0 4.63 0 10.3.17 15.43-4-4.91-9.64-11.1-13.41-15.28l-30.78-33.7-.14-.17h-8.09v71.18h11.67v-35.71c0-5 0-10.57-.19-16.56 6.26 7.38 11.33 13.17 15.49 17.67l33 36.13h3.91v-72.71h-11.63z" /><path d="m326.92.01c-18.53 0-37.68 13.81-37.68 36.91s19.15 37 37.68 37 37.68-13.84 37.68-37-19.16-36.91-37.68-36.91zm25.9 36.9c0 13.17-9.69 26.78-25.9 26.78-12.56 0-25.9-9.38-25.9-26.78s13.34-26.67 25.9-26.67c16.21.01 25.9 13.57 25.9 26.67z" /><path d="m409.55 39.91c7.416829-2.9882531 12.199779-10.2663091 12-18.26.184093-5.8906569-2.407758-11.5260806-7-15.22-4.160799-3.25633388-9.296474-5.01753932-14.58-5.00012974h-22.73v71.18012974h11.52v-30.8h9.15l22 30.6.15.2h13.7zm.15-18.26c0 7.51-6.25 10.17-11.61 10.17h-9.33v-20.36h9.29c5.4 0 11.65 2.67 11.65 10.17z" /><path d="m502.92 86.91c1.043026.0070924 2.083361-.1067582 3.1-.34h.17l7.82-10.89-1.59.64c-2.322084.914703-4.805238 1.3501053-7.3 1.28-4.519955-.0482832-8.968136-1.1363767-13-3.18-2.388178-1.2428404-4.845529-2.3479807-7.36-3.31 14.50852-5.0403652 24.12649-18.843746 23.83-34.2 0-23.1-19.15-36.91-37.68-36.91s-37.68 13.82-37.68 36.91c0 22.14 17 35.26 33.92 36.79 2.08 1 9.08 4.2 17.06 8.31 5.662344 3.3349846 12.13984 5.0313891 18.71 4.9zm-6.11-50c0 13.17-9.68 26.78-25.9 26.78-12.55 0-25.9-9.38-25.9-26.78s13.35-26.67 25.9-26.67c16.22.01 25.9 13.57 25.9 26.67z" /><path d="m548.14 73.91c17.41 0 29.1-10.67 29.1-26.57v-45.9h-11.34v44.83c0 10.94-6.43 17.21-17.65 17.21s-17.49-6.27-17.49-17.21v-44.83h-11.72v45.93c0 15.9 11.72 26.54 29.1 26.54z" /><path d="m633.13 62.49h-31.02v-20.56h22.77v-10.13h-22.77v-20.23h27.17v-10.13h-38.84v71.18h42.69z" /><path d="m667.13 29.3c-7.2-2.47-11-6.07-11-10.42 0-5.25 4.65-9.07 11.05-9.07 4.737868.04969971 9.365412 1.4362296 13.35 4l.61.44 2.34-9.85-.27-.2c-2.72-2-8.75-4.17-15.59-4.17-15.69 0-22.72 9.87-22.72 19.64s6.74 17.13 19.49 21.27c8.2 2.66 11.86 6.49 11.86 12.39 0 6.22-5 10.39-12.48 10.39-7.28 0-14.09-2.31-20.83-7.06l-1-.73 2.72 13.11.17.11c3.33 2.22 10.15 4.81 18.42 4.81 15.47 0 24.7-8.08 24.7-21.62-.03-10.87-6.64-18.18-20.82-23.04z" /><path d="m692.42.44v10.13h22.55v61.05h11.67v-61.05h22.55v-10.13z" /><path d="m245.47 167.7c-19.08 0-27.77-13.82-27.77-26.67s8.69-26.78 27.77-26.78c7.07 0 13.94 2.36 17.32 4.54l.62.4 2.09-10.28-.32-.18c-3.79-2.14-10.49-4.69-20.92-4.69-9.411137.015601-18.526921 3.28739-25.8 9.26-5.73 4.79-12.54 13.5-12.54 27.76s6.77 22.8 12.45 27.58c7.294354 5.998003 16.446293 9.274885 25.89 9.270005 8.63 0 13.84-1.000005 18.6-3.460005l.21-.11 2.49-11.59-1 .59c-4.64 2.83-11.43 4.36-19.09 4.36z" /><path d="m313.44 104.01c-18.52 0-37.68 13.81-37.68 36.9s19.16 37 37.68 37 37.68-13.84 37.68-37-19.15-36.9-37.68-36.9zm25.9 36.9c0 13.17-9.68 26.78-25.9 26.78-12.55 0-25.9-9.38-25.9-26.78s13.35-26.67 25.9-26.67c16.22.01 25.9 13.57 25.9 26.67z" /><path d="m372.24 105.44h-11.67v71.18h42.58v-10.13h-30.91z" /><path d="m427.02 105.44h-11.67v71.18h42.58v-10.13h-30.91z" /><path d="m479.6 145.93h22.77v-10.13h-22.77v-20.23h27.17v-10.13h-38.84v71.18h42.69v-10.13h-31.02z" /><path d="m555.27 150.44h16.17v13.87c-3.31 2.22-8.26 3.39-14.35 3.39-13.42 0-27.88-8.31-27.88-26.56 0-17.65 14-26.89 27.77-26.89 6.788947.027441 13.436543 1.942088 19.2 5.53l.61.39 2.2-10.28-.29-.19c-5.74-3.67-13.89-5.69-22.93-5.69-9.410849.017249-18.526096 3.288845-25.8 9.26-5.72 4.79-12.54 13.5-12.54 27.76 0 24 20.1 36.91 39 36.91 11.16 0 19.41-2.44 26-7.7l.18-.15v-29.18h-27.34z" /><path d="m604.66 145.93h22.77v-10.13h-22.77v-20.23h27.17v-10.13h-38.84v71.18h42.69v-10.13h-31.02z" /><path d="m150.200058 31.44c0 17.1526624-13.904063 31.058158-31.056726 31.0599982-17.152662.0018402-31.05965-13.9006717-31.063332-31.0533337-.0036806-17.152662 13.897339-31.06114207 31.05-31.06674378 8.24424-.01855228 16.156329 3.24752734 21.98684 9.07616205 5.830511 5.82863473 9.099138 13.73967143 9.083218 21.98391723z" /></g><path d="m159.57 77.2c-21.55 1.65-41.51 10.87-55.23 24.77-7.0724002 7.175818-12.5516672 15.762729-16.08 25.2-4.37 11.6-4.76 28-4.76 39v20.89c23.85-11.69 40.75-24.32 52.25-36.86 13.947714-15.133124 22.137602-34.684092 23.14-55.24.51-10.05.68-17.76.68-17.76z" fill="#f68b2d" /><path d="m.04 77.2c21.55 1.65 41.51 10.87 55.24 24.77 7.0663797 7.176769 12.5389141 15.763809 16.06 25.2 4.38 11.6 4.77 28 4.77 39v20.89c-23.85-11.69-40.74-24.32-52.25-36.86-13.93024442-15.140726-22.10525385-34.689969-23.1-55.24-.55-10.05-.72-17.76-.72-17.76z" fill="#ffbd00" /><path d="m70.85.55h-70.85v69.78c36.4606118-5.0097867 65.2859957-33.3998402 70.85-69.78z" fill="#ef3340" /></g></symbol><symbol viewBox="0 0 537 432" id="norquest-logo-vertical"><g fill="none" transform="translate(.13 .629921)"><g fill="#af272f"><path d="m52.25 288.140079c0 4.63 0 10.3.18 15.43-4-4.91-9.65-11.1-13.42-15.28l-30.77-33.7-.15-.17h-8.09v71.18h11.67v-35.7c0-5 0-10.57-.19-16.56 6.27 7.38 11.34 13.17 15.49 17.67l33 36.13h3.91v-72.72h-11.63z" /><path d="m114.25 252.990079c-18.52 0-37.68 13.81-37.68 36.91s19.16 37 37.68 37 37.68-13.84 37.68-37-19.16-36.91-37.68-36.91zm25.9 36.91c0 13.17-9.69 26.78-25.9 26.78-12.56 0-25.9-9.38-25.9-26.78s13.34-26.67 25.9-26.67c16.21 0 25.9 13.56 25.9 26.67z" /><path d="m196.87 292.870079c7.416829-2.988253 12.199779-10.266309 12-18.26.190443-5.897603-2.402034-11.541797-7-15.24-4.160799-3.256334-9.296474-5.017539-14.58-5.000129h-22.71v71.180129h11.56v-30.8h9.14l22 30.6.15.2h13.64zm.15-18.26c0 7.51-6.25 10.17-11.6 10.17h-9.29v-20.34h9.29c5.36 0 11.61 2.67 11.61 10.17z" /><path d="m290.26 339.900416c1.039726.007048 2.076755-.107059 3.09-.340337l.18-.05 7.81-10.89-1.59.64c-2.318593.914708-4.798486 1.350135-7.29 1.28-4.519775-.049712-8.967636-1.137727-13-3.18-2.411862-1.231682-4.892633-2.323488-7.43-3.27 14.520774-5.02543 24.156349-18.826867 23.87-34.19 0-23.1-19.16-36.91-37.68-36.91s-37.68 13.81-37.68 36.91c0 22.14 17 35.26 33.92 36.79 2.07.95 9.07 4.2 17 8.31 6.65 3.57 11.72 4.900337 18.8 4.900337zm-6.11-50.000337c0 13.17-9.69 26.78-25.9 26.78-12.56 0-25.9-9.38-25.9-26.78s13.34-26.67 25.9-26.67c16.21 0 25.9 13.56 25.9 26.67z" /><path d="m335.48 326.920079c17.4 0 29.1-10.67 29.1-26.57v-45.93h-11.34v44.83c0 10.94-6.44 17.21-17.65 17.21s-17.54-6.27-17.54-17.21v-44.83h-11.67v45.95c0 15.88 11.69 26.55 29.1 26.55z" /><path d="m420.47 315.470079h-31.02v-20.56h22.77v-10.13h-22.77v-20.23h27.17v-10.13h-38.84v71.18h42.69z" /><path d="m454.46 282.280079c-7.19-2.47-11-6.07-11-10.42 0-5.25 4.64-9.07 11-9.07 4.734789.04941 9.3592 1.43604 13.34 4l.61.44 2.34-9.85-.27-.2c-2.71-2-8.75-4.17-15.58-4.17-15.7 0-22.72 9.87-22.72 19.64s6.73 17.13 19.48 21.27c8.21 2.66 11.87 6.49 11.87 12.39 0 6.22-5 10.39-12.48 10.39-7.28 0-14.1-2.31-20.84-7.06l-1-.73 2.72 13.11.17.11c3.33 2.22 10.15 4.81 18.43 4.81 15.46 0 24.700102-8.08 24.700102-21.62.029898-10.87-6.580102-18.18-20.770102-23.04z" /><path d="m479.75 253.420079v10.13h22.55v61.05h11.67v-61.05h22.55v-10.13z" /><path d="m82.87 420.680079c-19.08 0-27.77-13.82-27.77-26.67s8.77-26.78 27.77-26.78c7.07 0 13.94 2.36 17.33 4.54l.62.4 2.09-10.31-.32-.18c-3.79-2.14-10.5-4.69-20.93-4.69-9.4108488.017249-18.5260959 3.288845-25.8 9.26-5.72 4.79-12.54 13.5-12.54 27.76s6.78 22.8 12.46 27.58c7.2830729 6.018155 16.432188 9.316503 25.88 9.33 8.64 0 13.85-1 18.61-3.46l.2-.11 2.5-11.59-1 .59c-4.61 2.8-11.39 4.33-19.1 4.33z" /><path d="m150.87 356.990079c-18.52 0-37.68 13.81-37.68 36.91s19.16 37 37.68 37 37.68-13.84 37.68-37-19.14-36.91-37.68-36.91zm25.9 36.91c0 13.17-9.69 26.78-25.9 26.78-12.55 0-25.9-9.38-25.9-26.78s13.35-26.67 25.9-26.67c16.23 0 25.92 13.56 25.92 26.67z" /><path d="m209.69 358.420079h-11.67v71.18h42.58v-10.13h-30.91z" /><path d="m264.47 358.420079h-11.67v71.18h42.58v-10.13h-30.91z" /><path d="m317.05 398.910079h22.77v-10.13h-22.77v-20.23h27.17v-10.13h-38.84v71.18h42.69v-10.13h-31.02z" /><path d="m392.72 403.420079h16.15v13.87c-3.31 2.22-8.26 3.39-14.35 3.39-13.43 0-27.88-8.31-27.88-26.56 0-17.65 14-26.89 27.77-26.89 6.788947.027442 13.436543 1.942088 19.2 5.53l.61.39 2.2-10.28-.29-.19c-5.75-3.67-13.89-5.69-22.93-5.69-9.410849.017249-18.526096 3.288845-25.8 9.26-5.72 4.79-12.54 13.5-12.54 27.76 0 24 20.1 36.91 39 36.91 11.16 0 19.4-2.44 25.94-7.7l.19-.15v-29.23h-27.27z" /><path d="m442.11 398.910079h22.77v-10.13h-22.77v-20.23h27.17v-10.13h-38.84v71.18h42.69v-10.13h-31.02z" /><path d="m331.010058 31.0600793c0 17.1526624-13.904063 31.058158-31.056726 31.0599982-17.152662.0018402-31.05965-13.9006717-31.063332-31.0533337-.003681-17.152662 13.897339-31.06114209 31.05-31.0667438 8.24424-.01855228 16.156329 3.24752734 21.98684 9.07616205 5.830511 5.82863465 9.099138 13.73967145 9.083218 21.98391725z" /></g><path d="m340.38 76.8200793c-21.51 1.66-41.51 10.87-55.23 24.7699997-7.07028 7.177509-12.549241 15.76394-16.08 25.2-4.37 11.6-4.76 28-4.76 39v20.89c23.85-11.68 40.75-24.32 52.25-36.86 13.949167-15.132191 22.139286-34.68371 23.14-55.2399997.51-10.01.68-17.76.68-17.76z" fill="#f68b2d" /><path d="m180.87 76.8200793c21.55 1.66 41.51 10.87 55.24 24.7699997 7.064257 7.17846 12.536485 15.76502 16.06 25.2 4.38 11.6 4.77 28 4.77 39v20.89c-23.87-11.68-40.76-24.31-52.27-36.86-13.94262-15.135491-22.128673-34.685752-23.13-55.2399997-.52-10.01-.67-17.76-.67-17.76z" fill="#f6be00" /><path d="m251.66.17007928h-70.85v69.78000002c36.462149-5.0066611 65.289098-33.3982553 70.85-69.78000002z" fill="#ef3340" /></g></symbol></defs></svg>