<svg class="svg_sprite" xmlns="http://www.w3.org/2000/svg" xmlns:xlink="http://www.w3.org/1999/xlink"><defs><symbol viewBox="0 0 159.6 186.7" id="NorQuest-badge-colour">
<style type="text/css">
	#NorQuest-badge-colour .st0{fill:#AF272F;}
	#NorQuest-badge-colour .st1{fill:#F68B2D;}
	#NorQuest-badge-colour .st2{fill:#F6BE00;}
	#NorQuest-badge-colour .st3{fill:#EF3340;}
	#NorQuest-badge-colour .st4{fill:#FFFFFF;}
	#NorQuest-badge-colour .st5{fill:#FFBD00;}
</style>
<g>
	<path class="st0" d="M150.2,31.4c0,17.2-13.8,31-31,31.1c-17.2,0.1-31.1-13.8-31.2-31C88,14.4,102,0.4,119.1,0.4
		C136.3,0.4,150.2,14.3,150.2,31.4z" />
	<path class="st1" d="M159.6,77.2c-21.5,1.7-41.5,10.9-55.2,24.8c-7,7.1-12.5,15.6-16.1,25.2c-4.4,11.6-4.8,28-4.8,39
		c0,7.1,0,15.2,0,20.9c23.8-11.7,40.7-24.3,52.2-36.9c15.9-17.3,22.2-37.5,23.1-55.2C159.4,84.9,159.6,77.2,159.6,77.2z" />
	<path class="st5" d="M0,77.2c21.5,1.7,41.5,10.9,55.2,24.8c7,7.1,12.5,15.6,16.1,25.2c4.4,11.6,4.8,28,4.8,39c0,7.1,0,15.2,0,20.9
		c-23.9-11.7-40.7-24.3-52.3-36.9C8,132.9,1.6,112.7,0.7,94.9C0.2,84.9,0,77.2,0,77.2z" />
	<path class="st3" d="M70.9,0.5H0v69.8C36.4,65.4,65.4,36.8,70.9,0.5z" />
</g>
</symbol><symbol viewBox="0 0 159.6 186.7" id="NorQuest-badge-light">
<style type="text/css">
	#NorQuest-badge-light .st0{fill:#AF272F;}
	#NorQuest-badge-light .st1{fill:#F68B2D;}
	#NorQuest-badge-light .st2{fill:#F6BE00;}
	#NorQuest-badge-light .st3{fill:#EF3340;}
	#NorQuest-badge-light .st4{fill:#FFF7E9;}
	#NorQuest-badge-light .st5{fill:#FFFFFF;}
	#NorQuest-badge-light .st6{fill:#FFBD00;}
</style>
<g>
	<path class="st4" d="M150.2,31.4c0,17.2-13.8,31-31,31.1c-17.2,0.1-31.1-13.8-31.2-31C88,14.4,102,0.4,119.1,0.4
		C136.3,0.4,150.2,14.3,150.2,31.4z" />
	<path class="st5" d="M159.6,77.2c-21.5,1.7-41.5,10.9-55.2,24.8c-7,7.1-12.5,15.6-16.1,25.2c-4.4,11.6-4.8,28-4.8,39
		c0,7.1,0,15.2,0,20.9c23.8-11.7,40.7-24.3,52.2-36.9c15.9-17.3,22.2-37.5,23.1-55.2C159.4,84.9,159.6,77.2,159.6,77.2z" />
	<path class="st4" d="M0,77.2c21.5,1.7,41.5,10.9,55.2,24.8c7,7.1,12.5,15.6,16.1,25.2c4.4,11.6,4.8,28,4.8,39c0,7.1,0,15.2,0,20.9
		c-23.9-11.7-40.7-24.3-52.3-36.9C8,132.9,1.6,112.7,0.7,94.9C0.2,84.9,0,77.2,0,77.2z" />
	<path class="st5" d="M70.9,0.5H0v69.8C36.4,65.4,65.4,36.8,70.9,0.5z" />
</g>
</symbol><symbol viewBox="0 0 159.6 186.7" id="NorQuest-badge-white">
<style type="text/css">
	#NorQuest-badge-white .st0{fill:#AF272F;}
	#NorQuest-badge-white .st1{fill:#F68B2D;}
	#NorQuest-badge-white .st2{fill:#F6BE00;}
	#NorQuest-badge-white .st3{fill:#EF3340;}
	#NorQuest-badge-white .st4{fill:#FFFFFF;}
	#NorQuest-badge-white .st5{fill:#FFBD00;}
</style>
<g>
	<path class="st4" d="M150.2,31.4c0,17.2-13.8,31-31,31.1c-17.2,0.1-31.1-13.8-31.2-31C88,14.4,102,0.4,119.1,0.4
		C136.3,0.4,150.2,14.3,150.2,31.4z" />
	<path class="st4" d="M159.6,77.2c-21.5,1.7-41.5,10.9-55.2,24.8c-7,7.1-12.5,15.6-16.1,25.2c-4.4,11.6-4.8,28-4.8,39
		c0,7.1,0,15.2,0,20.9c23.8-11.7,40.7-24.3,52.2-36.9c15.9-17.3,22.2-37.5,23.1-55.2C159.4,84.9,159.6,77.2,159.6,77.2z" />
	<path class="st4" d="M0,77.2c21.5,1.7,41.5,10.9,55.2,24.8c7,7.1,12.5,15.6,16.1,25.2c4.4,11.6,4.8,28,4.8,39c0,7.1,0,15.2,0,20.9
		c-23.9-11.7-40.7-24.3-52.3-36.9C8,132.9,1.6,112.7,0.7,94.9C0.2,84.9,0,77.2,0,77.2z" />
	<path class="st4" d="M70.9,0.5H0v69.8C36.4,65.4,65.4,36.8,70.9,0.5z" />
</g>
</symbol><symbol viewBox="0 0 749.2 186.7" id="NorQuest-logo">
<style type="text/css">
	#NorQuest-logo .st0{fill:#AF272F;}
	#NorQuest-logo .st1{fill:#F68B2D;}
	#NorQuest-logo .st2{fill:#F6BE00;}
	#NorQuest-logo .st3{fill:#EF3340;}
	#NorQuest-logo .st4{fill:#FFBD00;}
</style>
<g>
	<path class="st0" d="M264.9,35.2c0,4.6,0,10.3,0.2,15.4c-4-4.9-9.6-11.1-13.4-15.3L220.9,1.6l-0.1-0.2h-8.1v71.2h11.7V36.9
		c0-5,0-10.6-0.2-16.6c6.3,7.4,11.3,13.2,15.5,17.7l33,36.1h3.9V1.4h-11.7V35.2z" />
	<path class="st0" d="M326.9,0c-18.5,0-37.7,13.8-37.7,36.9c0,23.2,19.2,37,37.7,37s37.7-13.8,37.7-37C364.6,13.8,345.4,0,326.9,0z
		 M352.8,36.9c0,13.2-9.7,26.8-25.9,26.8c-12.6,0-25.9-9.4-25.9-26.8c0-17.3,13.3-26.7,25.9-26.7C343.1,10.2,352.8,23.8,352.8,36.9z
		" />
	<path class="st0" d="M409.5,39.9c7.7-3.3,12-9.9,12-18.3c0-7.9-3.8-12.6-7-15.2c-3.9-3.2-9.2-5-14.6-5h-22.7v71.2h11.6V41.8h9.1
		l22,30.6l0.1,0.2h13.7L409.5,39.9z M409.7,21.6c0,7.5-6.2,10.2-11.6,10.2h-9.3V11.5h9.3C403.4,11.5,409.7,14.1,409.7,21.6z" />
	<path class="st0" d="M502.9,86.9c1.1,0,2.2-0.1,3.1-0.3l0.2,0l7.8-10.9l-1.6,0.6c-2.8,1.1-5.2,1.3-7.3,1.3c-4.3,0-8.5-1-13-3.2
		c-3.4-1.6-5.7-2.7-7.4-3.3c12.1-4.1,23.9-16,23.9-34.2c0-23.1-19.2-36.9-37.7-36.9s-37.7,13.8-37.7,36.9c0,22.1,17,35.3,33.9,36.8
		c2.1,1,9.1,4.2,17.1,8.3C490.8,85.6,495.8,86.9,502.9,86.9z M496.8,36.9c0,13.2-9.7,26.8-25.9,26.8c-12.6,0-25.9-9.4-25.9-26.8
		c0-17.3,13.3-26.7,25.9-26.7C487.1,10.2,496.8,23.8,496.8,36.9z" />
	<path class="st0" d="M548.1,73.9c17.4,0,29.1-10.7,29.1-26.6V1.4h-11.3v44.8c0,10.9-6.4,17.2-17.6,17.2c-11.1,0-17.5-6.3-17.5-17.2
		V1.4H519v45.9C519,63.3,530.7,73.9,548.1,73.9z" />
	<polygon class="st0" points="633.1,62.5 602.1,62.5 602.1,41.9 624.9,41.9 624.9,31.8 602.1,31.8 602.1,11.6 629.3,11.6 629.3,1.4 
		590.4,1.4 590.4,72.6 633.1,72.6 	" />
	<path class="st0" d="M667.1,29.3c-7.2-2.5-11-6.1-11-10.4c0-5.3,4.6-9.1,11-9.1c5.8,0,11.1,2.4,13.3,4l0.6,0.4l2.3-9.9l-0.3-0.2
		c-2.7-2-8.8-4.2-15.6-4.2c-15.7,0-22.7,9.9-22.7,19.6s6.7,17.1,19.5,21.3c8.2,2.7,11.9,6.5,11.9,12.4c0,6.2-5,10.4-12.5,10.4
		c-7.3,0-14.1-2.3-20.8-7.1l-1-0.7l2.7,13.1l0.2,0.1c3.3,2.2,10.2,4.8,18.4,4.8c15.5,0,24.7-8.1,24.7-21.6
		C687.9,41.5,681.3,34.1,667.1,29.3z" />
	<polygon class="st0" points="692.4,0.4 692.4,10.6 715,10.6 715,71.6 726.6,71.6 726.6,10.6 749.2,10.6 749.2,0.4 	" />
	<path class="st0" d="M245.5,167.7c-19.1,0-27.8-13.8-27.8-26.7c0-12.9,8.7-26.8,27.8-26.8c7.1,0,13.9,2.4,17.3,4.5l0.6,0.4
		l2.1-10.3l-0.3-0.2c-3.8-2.1-10.5-4.7-20.9-4.7c-9.4,0-18.8,3.4-25.8,9.3c-5.7,4.8-12.5,13.5-12.5,27.8c0,14.1,6.8,22.8,12.5,27.6
		c7,5.9,16.5,9.3,25.9,9.3c8.6,0,13.8-1,18.6-3.5l0.2-0.1l2.5-11.6l-1,0.6C259.9,166.2,253.1,167.7,245.5,167.7z" />
	<path class="st0" d="M313.4,104c-18.5,0-37.7,13.8-37.7,36.9c0,23.2,19.2,37,37.7,37s37.7-13.8,37.7-37
		C351.1,117.8,332,104,313.4,104z M339.3,140.9c0,13.2-9.7,26.8-25.9,26.8c-12.6,0-25.9-9.4-25.9-26.8c0-17.3,13.3-26.7,25.9-26.7
		C329.7,114.2,339.3,127.8,339.3,140.9z" />
	<polygon class="st0" points="372.2,105.4 360.6,105.4 360.6,176.6 403.2,176.6 403.2,166.5 372.2,166.5 	" />
	<polygon class="st0" points="427,105.4 415.4,105.4 415.4,176.6 457.9,176.6 457.9,166.5 427,166.5 	" />
	<polygon class="st0" points="479.6,145.9 502.4,145.9 502.4,135.8 479.6,135.8 479.6,115.6 506.8,115.6 506.8,105.4 467.9,105.4 
		467.9,176.6 510.6,176.6 510.6,166.5 479.6,166.5 	" />
	<path class="st0" d="M555.3,150.4h16.2v13.9c-3.3,2.2-8.3,3.4-14.4,3.4c-13.4,0-27.9-8.3-27.9-26.6c0-17.7,14-26.9,27.8-26.9
		c6.7,0,13.7,2,19.2,5.5l0.6,0.4l2.2-10.3l-0.3-0.2c-5.7-3.7-13.9-5.7-22.9-5.7c-9.4,0-18.8,3.4-25.8,9.3
		c-5.7,4.8-12.5,13.5-12.5,27.8c0,24,20.1,36.9,39,36.9c11.2,0,19.4-2.4,25.9-7.7l0.2-0.2v-29.2h-27.3V150.4z" />
	<polygon class="st0" points="604.7,145.9 627.4,145.9 627.4,135.8 604.7,135.8 604.7,115.6 631.8,115.6 631.8,105.4 593,105.4 
		593,176.6 635.7,176.6 635.7,166.5 604.7,166.5 	" />
	<path class="st0" d="M150.2,31.4c0,17.2-13.8,31-31,31.1c-17.2,0.1-31.1-13.8-31.2-31C88,14.4,102,0.4,119.1,0.4
		C136.3,0.4,150.2,14.3,150.2,31.4z" />
	<path class="st1" d="M159.6,77.2c-21.5,1.7-41.5,10.9-55.2,24.8c-7,7.1-12.5,15.6-16.1,25.2c-4.4,11.6-4.8,28-4.8,39
		c0,7.1,0,15.2,0,20.9c23.8-11.7,40.7-24.3,52.2-36.9c15.9-17.3,22.2-37.5,23.1-55.2C159.4,84.9,159.6,77.2,159.6,77.2z" />
	<path class="st4" d="M0,77.2c21.5,1.7,41.5,10.9,55.2,24.8c7,7.1,12.5,15.6,16.1,25.2c4.4,11.6,4.8,28,4.8,39c0,7.1,0,15.2,0,20.9
		c-23.9-11.7-40.7-24.3-52.3-36.9C8,132.9,1.6,112.7,0.7,94.9C0.2,84.9,0,77.2,0,77.2z" />
	<path class="st3" d="M70.9,0.5H0v69.8C36.4,65.4,65.4,36.8,70.9,0.5z" />
</g>
</symbol><symbol viewBox="0 0 750 188" id="norquest-logo-horizontal"><g id="norquest-logo-horizontal_logo-text"><path d="M265.16,35.25c0,4.63,0,10.3.17,15.43C256.2,39.58,230.8,12.49,221,1.53h-8.09V72.71h11.67c-.07-12.22.17-40.2-.19-52.27,11.76,14.1,36.53,40.54,48.49,53.8h3.91V1.53H265.16Z" style="fill:#af272f" /><path d="M327.16.1c-49.73.63-49.63,73.25,0,73.91C376.81,73.38,376.87.68,327.16.1ZM353.06,37c1.13,32.56-50.93,37.75-51.8,0C302.11-.65,354.2,4.62,353.06,37Z" style="fill:#af272f" /><path d="M409.79,40c13.46-5,16.29-24.77,5-33.48-8-7.63-27.41-4.35-37.31-5V72.7H389V41.9h9.15c.15.2,22,30.62,22.15,30.8H434Zm.15-18.26C409.59,33.81,396.88,31.8,389,31.91V11.55C396.89,11.64,409.62,9.69,409.94,21.74Z" style="fill:#af272f" /><path d="M503.16,87a18,18,0,0,0,3.27-.34l7.82-10.89c-9.91,4.93-20.16-.44-29.25-4.57C524.89,56.69,510.21-1.45,471.15.09c-47.37.16-50.71,69.31-3.76,73.7C473.79,76.11,492.44,88.42,503.16,87Zm-6.11-50c1.13,32.56-50.92,37.75-51.8,0C446.11-.66,498.19,4.62,497.05,37Z" style="fill:#af272f" /><path d="M548.38,74c40.67.49,26.85-47.5,29.1-72.47H566.14V46.36c0,10.94-6.43,17.21-17.65,17.21S531,57.3,531,46.36V1.53H519.28C521.43,26.36,507.9,74.72,548.38,74Z" style="fill:#af272f" /><path d="M633.37,62.58h-31V42h22.77V31.89H602.35V11.66h27.17V1.53H590.68V72.71h42.69Z" style="fill:#af272f" /><path d="M667.37,29.39c-25.53-10.19-1.84-27.72,14-15l2.34-9.85C652.35-14.23,625.16,28.1,664.63,41c27,9.89,4.62,35.77-22.45,15l2.72,13.11C681.36,89.72,710,44.47,667.37,29.39Z" style="fill:#af272f" /><path d="M692.66.53V10.66h22.55V71.71h11.67v-61h22.55V.53Z" style="fill:#af272f" /><path d="M245.71,167.79c-50.25-4.26-25.73-73.33,17.94-48.51L265.74,109c-21.93-12.1-60.06-1.36-59.58,32.15.11,32.21,34,43.44,57.15,33.28l2.49-11.59c-5.2,3.33-11.81,4.92-20.09,4.95Z" style="fill:#af272f" /><path d="M313.68,104.1c-49.73.64-49.62,73.22,0,73.9C363.32,177.37,363.41,104.67,313.68,104.1Zm25.9,36.9c1.13,32.56-50.92,37.75-51.8,0C288.64,103.34,340.72,108.62,339.58,141Z" style="fill:#af272f" /><path d="M372.48,105.53H360.81v71.18h42.58V166.58H372.48Z" style="fill:#af272f" /><path d="M427.26,105.53H415.59v71.18h42.58V166.58H427.26Z" style="fill:#af272f" /><path d="M479.84,146h22.77V135.89H479.84V115.66H507V105.53H468.17v71.18h42.69V166.58h-31Z" style="fill:#af272f" /><path d="M555.51,150.53h16.17V164.4c-15.94,8.73-42.47.95-42.23-23.17.31-26.57,29.78-33.08,47.58-21l2.2-10.28c-23.6-13.81-61.35-3.14-61.56,31.14-.3,35.17,43.16,46.22,65.18,29.06V141H555.51Z" style="fill:#af272f" /><path d="M604.9,146h22.77V135.89H604.9V115.66h27.17V105.53H593.23v71.18h42.69V166.58h-31Z" style="fill:#af272f" /></g><path d="M150.44,31.53c-.7,40.82-61.42,40.83-62.12,0,.69-40.86,61.5-40.8,62.12,0Z" style="fill:#af272f" /><path d="M159.81,77.29c-32,2.7-60.25,20.64-71.31,50-6.55,18.88-4.34,41-4.76,59.89,49.4-22.56,79.52-59.3,76.07-109.86Z" style="fill:#f68b2d" /><path d="M.28,77.29c32,2.7,60.26,20.63,71.3,50,6.56,18.88,4.34,41,4.77,59.89C26.92,164.6-3.09,127.84.28,77.29Z" style="fill:#ffbd00" /><path d="M71.09.64H.24V70.42A83.13,83.13,0,0,0,71.09.64Z" style="fill:#ef3340" /></symbol><symbol viewBox="0 0 750 188" id="norquest-logo-horizontal-edit"><g id="norquest-logo-horizontal-edit_logo-text"><path d="M265.16,35.25c0,4.63,0,10.3.17,15.43C256.2,39.58,230.8,12.49,221,1.53h-8.09V72.71h11.67c-.07-12.22.17-40.2-.19-52.27,11.76,14.1,36.53,40.54,48.49,53.8h3.91V1.53H265.16Z" style="fill:#af272f" /><path d="M327.16.1c-49.73.63-49.63,73.25,0,73.91C376.81,73.38,376.87.68,327.16.1ZM353.06,37c1.13,32.56-50.93,37.75-51.8,0C302.11-.65,354.2,4.62,353.06,37Z" style="fill:#af272f" /><path d="M409.79,40c13.46-5,16.29-24.77,5-33.48-8-7.63-27.41-4.35-37.31-5V72.7H389V41.9h9.15c.15.2,22,30.62,22.15,30.8H434Zm.15-18.26C409.59,33.81,396.88,31.8,389,31.91V11.55C396.89,11.64,409.62,9.69,409.94,21.74Z" style="fill:#af272f" /><path d="M503.16,87a18,18,0,0,0,3.27-.34l7.82-10.89c-9.91,4.93-20.16-.44-29.25-4.57C524.89,56.69,510.21-1.45,471.15.09c-47.37.16-50.71,69.31-3.76,73.7C473.79,76.11,492.44,88.42,503.16,87Zm-6.11-50c1.13,32.56-50.92,37.75-51.8,0C446.11-.66,498.19,4.62,497.05,37Z" style="fill:#af272f" /><path d="M548.38,74c40.67.49,26.85-47.5,29.1-72.47H566.14V46.36c0,10.94-6.43,17.21-17.65,17.21S531,57.3,531,46.36V1.53H519.28C521.43,26.36,507.9,74.72,548.38,74Z" style="fill:#af272f" /><path d="M633.37,62.58h-31V42h22.77V31.89H602.35V11.66h27.17V1.53H590.68V72.71h42.69Z" style="fill:#af272f" /><path d="M667.37,29.39c-25.53-10.19-1.84-27.72,14-15l2.34-9.85C652.35-14.23,625.16,28.1,664.63,41c27,9.89,4.62,35.77-22.45,15l2.72,13.11C681.36,89.72,710,44.47,667.37,29.39Z" style="fill:#af272f" /><path d="M692.66.53V10.66h22.55V71.71h11.67v-61h22.55V.53Z" style="fill:#af272f" /><path d="M245.71,167.79c-50.25-4.26-25.73-73.33,17.94-48.51L265.74,109c-21.93-12.1-60.06-1.36-59.58,32.15.11,32.21,34,43.44,57.15,33.28l2.49-11.59c-5.2,3.33-11.81,4.92-20.09,4.95Z" style="fill:#af272f" /><path d="M313.68,104.1c-49.73.64-49.62,73.22,0,73.9C363.32,177.37,363.41,104.67,313.68,104.1Zm25.9,36.9c1.13,32.56-50.92,37.75-51.8,0C288.64,103.34,340.72,108.62,339.58,141Z" style="fill:#af272f" /><path d="M372.48,105.53H360.81v71.18h42.58V166.58H372.48Z" style="fill:#af272f" /><path d="M427.26,105.53H415.59v71.18h42.58V166.58H427.26Z" style="fill:#af272f" /><path d="M479.84,146h22.77V135.89H479.84V115.66H507V105.53H468.17v71.18h42.69V166.58h-31Z" style="fill:#af272f" /><path d="M555.51,150.53h16.17V164.4c-15.94,8.73-42.47.95-42.23-23.17.31-26.57,29.78-33.08,47.58-21l2.2-10.28c-23.6-13.81-61.35-3.14-61.56,31.14-.3,35.17,43.16,46.22,65.18,29.06V141H555.51Z" style="fill:#af272f" /><path d="M604.9,146h22.77V135.89H604.9V115.66h27.17V105.53H593.23v71.18h42.69V166.58h-31Z" style="fill:#af272f" /></g><path d="M150.44,31.53c-.7,40.82-61.42,40.83-62.12,0,.69-40.86,61.5-40.8,62.12,0Z" style="fill:#af272f" /><path d="M159.81,77.29c-32,2.7-60.25,20.64-71.31,50-6.55,18.88-4.34,41-4.76,59.89,49.4-22.56,79.52-59.3,76.07-109.86Z" style="fill:#f68b2d" /><path d="M.28,77.29c32,2.7,60.26,20.63,71.3,50,6.56,18.88,4.34,41,4.77,59.89C26.92,164.6-3.09,127.84.28,77.29Z" style="fill:#ffbd00" /><path d="M71.09.64H.24V70.42A83.13,83.13,0,0,0,71.09.64Z" style="fill:#ef3340" /></symbol><symbol viewBox="0 0 537 432" id="norquest-logo-vertical"><g fill="none" transform="translate(.13 .629921)"><g fill="#af272f"><path d="m52.25 288.140079c0 4.63 0 10.3.18 15.43-4-4.91-9.65-11.1-13.42-15.28l-30.77-33.7-.15-.17h-8.09v71.18h11.67v-35.7c0-5 0-10.57-.19-16.56 6.27 7.38 11.34 13.17 15.49 17.67l33 36.13h3.91v-72.72h-11.63z" /><path d="m114.25 252.990079c-18.52 0-37.68 13.81-37.68 36.91s19.16 37 37.68 37 37.68-13.84 37.68-37-19.16-36.91-37.68-36.91zm25.9 36.91c0 13.17-9.69 26.78-25.9 26.78-12.56 0-25.9-9.38-25.9-26.78s13.34-26.67 25.9-26.67c16.21 0 25.9 13.56 25.9 26.67z" /><path d="m196.87 292.870079c7.416829-2.988253 12.199779-10.266309 12-18.26.190443-5.897603-2.402034-11.541797-7-15.24-4.160799-3.256334-9.296474-5.017539-14.58-5.000129h-22.71v71.180129h11.56v-30.8h9.14l22 30.6.15.2h13.64zm.15-18.26c0 7.51-6.25 10.17-11.6 10.17h-9.29v-20.34h9.29c5.36 0 11.61 2.67 11.61 10.17z" /><path d="m290.26 339.900416c1.039726.007048 2.076755-.107059 3.09-.340337l.18-.05 7.81-10.89-1.59.64c-2.318593.914708-4.798486 1.350135-7.29 1.28-4.519775-.049712-8.967636-1.137727-13-3.18-2.411862-1.231682-4.892633-2.323488-7.43-3.27 14.520774-5.02543 24.156349-18.826867 23.87-34.19 0-23.1-19.16-36.91-37.68-36.91s-37.68 13.81-37.68 36.91c0 22.14 17 35.26 33.92 36.79 2.07.95 9.07 4.2 17 8.31 6.65 3.57 11.72 4.900337 18.8 4.900337zm-6.11-50.000337c0 13.17-9.69 26.78-25.9 26.78-12.56 0-25.9-9.38-25.9-26.78s13.34-26.67 25.9-26.67c16.21 0 25.9 13.56 25.9 26.67z" /><path d="m335.48 326.920079c17.4 0 29.1-10.67 29.1-26.57v-45.93h-11.34v44.83c0 10.94-6.44 17.21-17.65 17.21s-17.54-6.27-17.54-17.21v-44.83h-11.67v45.95c0 15.88 11.69 26.55 29.1 26.55z" /><path d="m420.47 315.470079h-31.02v-20.56h22.77v-10.13h-22.77v-20.23h27.17v-10.13h-38.84v71.18h42.69z" /><path d="m454.46 282.280079c-7.19-2.47-11-6.07-11-10.42 0-5.25 4.64-9.07 11-9.07 4.734789.04941 9.3592 1.43604 13.34 4l.61.44 2.34-9.85-.27-.2c-2.71-2-8.75-4.17-15.58-4.17-15.7 0-22.72 9.87-22.72 19.64s6.73 17.13 19.48 21.27c8.21 2.66 11.87 6.49 11.87 12.39 0 6.22-5 10.39-12.48 10.39-7.28 0-14.1-2.31-20.84-7.06l-1-.73 2.72 13.11.17.11c3.33 2.22 10.15 4.81 18.43 4.81 15.46 0 24.700102-8.08 24.700102-21.62.029898-10.87-6.580102-18.18-20.770102-23.04z" /><path d="m479.75 253.420079v10.13h22.55v61.05h11.67v-61.05h22.55v-10.13z" /><path d="m82.87 420.680079c-19.08 0-27.77-13.82-27.77-26.67s8.77-26.78 27.77-26.78c7.07 0 13.94 2.36 17.33 4.54l.62.4 2.09-10.31-.32-.18c-3.79-2.14-10.5-4.69-20.93-4.69-9.4108488.017249-18.5260959 3.288845-25.8 9.26-5.72 4.79-12.54 13.5-12.54 27.76s6.78 22.8 12.46 27.58c7.2830729 6.018155 16.432188 9.316503 25.88 9.33 8.64 0 13.85-1 18.61-3.46l.2-.11 2.5-11.59-1 .59c-4.61 2.8-11.39 4.33-19.1 4.33z" /><path d="m150.87 356.990079c-18.52 0-37.68 13.81-37.68 36.91s19.16 37 37.68 37 37.68-13.84 37.68-37-19.14-36.91-37.68-36.91zm25.9 36.91c0 13.17-9.69 26.78-25.9 26.78-12.55 0-25.9-9.38-25.9-26.78s13.35-26.67 25.9-26.67c16.23 0 25.92 13.56 25.92 26.67z" /><path d="m209.69 358.420079h-11.67v71.18h42.58v-10.13h-30.91z" /><path d="m264.47 358.420079h-11.67v71.18h42.58v-10.13h-30.91z" /><path d="m317.05 398.910079h22.77v-10.13h-22.77v-20.23h27.17v-10.13h-38.84v71.18h42.69v-10.13h-31.02z" /><path d="m392.72 403.420079h16.15v13.87c-3.31 2.22-8.26 3.39-14.35 3.39-13.43 0-27.88-8.31-27.88-26.56 0-17.65 14-26.89 27.77-26.89 6.788947.027442 13.436543 1.942088 19.2 5.53l.61.39 2.2-10.28-.29-.19c-5.75-3.67-13.89-5.69-22.93-5.69-9.410849.017249-18.526096 3.288845-25.8 9.26-5.72 4.79-12.54 13.5-12.54 27.76 0 24 20.1 36.91 39 36.91 11.16 0 19.4-2.44 25.94-7.7l.19-.15v-29.23h-27.27z" /><path d="m442.11 398.910079h22.77v-10.13h-22.77v-20.23h27.17v-10.13h-38.84v71.18h42.69v-10.13h-31.02z" /><path d="m331.010058 31.0600793c0 17.1526624-13.904063 31.058158-31.056726 31.0599982-17.152662.0018402-31.05965-13.9006717-31.063332-31.0533337-.003681-17.152662 13.897339-31.06114209 31.05-31.0667438 8.24424-.01855228 16.156329 3.24752734 21.98684 9.07616205 5.830511 5.82863465 9.099138 13.73967145 9.083218 21.98391725z" /></g><path d="m340.38 76.8200793c-21.51 1.66-41.51 10.87-55.23 24.7699997-7.07028 7.177509-12.549241 15.76394-16.08 25.2-4.37 11.6-4.76 28-4.76 39v20.89c23.85-11.68 40.75-24.32 52.25-36.86 13.949167-15.132191 22.139286-34.68371 23.14-55.2399997.51-10.01.68-17.76.68-17.76z" fill="#f68b2d" /><path d="m180.87 76.8200793c21.55 1.66 41.51 10.87 55.24 24.7699997 7.064257 7.17846 12.536485 15.76502 16.06 25.2 4.38 11.6 4.77 28 4.77 39v20.89c-23.87-11.68-40.76-24.31-52.27-36.86-13.94262-15.135491-22.128673-34.685752-23.13-55.2399997-.52-10.01-.67-17.76-.67-17.76z" fill="#f6be00" /><path d="m251.66.17007928h-70.85v69.78000002c36.462149-5.0066611 65.289098-33.3982553 70.85-69.78000002z" fill="#ef3340" /></g></symbol></defs></svg>